<?xml version="1.0" encoding="utf-8"?>
<!-- Generator: Adobe Illustrator 22.0.0, SVG Export Plug-In . SVG Version: 6.00 Build 0)  -->
<svg version="1.1" id="Layer_1" xmlns="http://www.w3.org/2000/svg" xmlns:xlink="http://www.w3.org/1999/xlink" x="0px" y="0px"
	 viewBox="0 0 532 202.6" style="enable-background:new 0 0 532 202.6;" xml:space="preserve">
<style type="text/css">
	.st0{fill:#242F4B;}
	.st1{opacity:0.8;}
</style>
<g>
	<g>
		<g>
			<polygon class="st0" points="165.2,45.8 163.8,45 155.1,40 153.4,38.9 103.1,9.6 86.6,0 8.2,45.5 0,50.2 8.2,54.9 8.5,55.1 
				8.8,55.3 8.8,55.3 27.3,66 27.3,88.1 27.3,88.1 35.9,82.5 35.9,71.1 78.4,46.2 86.6,41.5 86.6,31 86.6,31 95.8,36.4 138.3,61.2 
				146.5,66 146.5,87.7 148.1,86.7 164.5,76.9 166.1,76 173.3,71.7 173.3,50.6 			"/>
			<polygon class="st0" points="164.5,114.5 148.1,124.4 146.5,125.4 146.5,136.1 137.3,131.2 137.2,131.2 89.4,159.2 89,159.4 
				87.1,160.6 86.8,160.4 35.9,130.7 35.9,120.5 35.5,120.6 27.3,125.2 27.3,129.4 27.3,136.4 35.5,141.1 78,165.9 86.6,171 
				86.6,192.4 86.6,202.6 103.1,193.3 153.4,163.9 155.1,162.9 165.2,157 173.3,152.3 173.3,109.2 166.1,113.6 			"/>
			<polygon class="st0" points="35.9,113.9 35.9,89.1 35.5,89.2 27.3,93.8 27.3,93.8 27.3,119.4 27.3,119.5 			"/>
			<polygon class="st0" points="164.5,82.6 148.1,92.5 146.5,93.4 146.5,119.6 148.1,118.7 164.5,108.9 166.1,107.9 173.3,103.6 
				173.3,77.3 166.1,81.6 			"/>
		</g>
		<g class="st1">
			<polygon class="st0" points="138.8,89.3 138.2,88.9 137.2,88.5 137.2,113.8 138.8,114.8 146.4,119.7 146.5,119.6 146.5,93.4 
				146.4,93.5 			"/>
			<polygon class="st0" points="138.8,121.2 138.2,120.9 137.2,120.4 137.2,127.6 137.3,131.2 146.5,136.1 146.5,125.4 146.4,125.5 
							"/>
			<polygon class="st0" points="138.3,61.2 95.8,36.4 86.6,31 86.6,41.5 95.4,46.8 137.2,71.2 137.2,81.8 138.8,82.9 146.4,87.7 
				146.5,87.7 146.5,76.1 146.5,71.8 146.5,66 			"/>
			<polygon class="st0" points="27.3,88.1 27.3,71.3 27.3,66 8.8,55.3 0,50.2 0,71.8 8.2,76.6 			"/>
			<polygon class="st0" points="27.3,119.4 27.3,93.8 8.2,82.3 0.1,77.4 0,77.4 0,103.2 8.2,108 			"/>
			<polygon class="st0" points="78,165.9 35.5,141.1 27.3,136.4 27.3,125.2 8.2,113.7 0.1,108.8 0,113 0,152 8.2,156.8 18.2,162.6 
				19.9,163.7 70.3,193 86.6,202.6 86.6,192.4 86.6,171 			"/>
		</g>
		<g>
			<path class="st0" d="M216.7,151.4h-21.1v-101h57.9V68h-36.8v26h34.2v17.5h-34.2L216.7,151.4L216.7,151.4z"/>
			<path class="st0" d="M341.3,50.4v65.3c0,7.5-1.7,14-5,19.6c-3.3,5.6-8.2,9.9-14.5,12.9s-13.8,4.5-22.4,4.5
				c-13,0-23.1-3.3-30.2-10c-7.2-6.7-10.8-15.8-10.8-27.3v-65h21.3v61.8c0,7.8,1.6,13.5,4.7,17.1s8.3,5.5,15.5,5.5
				c7,0,12.1-1.8,15.2-5.5c3.2-3.7,4.7-9.4,4.7-17.2V50.4H341.3z"/>
			<path class="st0" d="M395.5,152c-15.2,0-28-3.7-36-12.7s-12-21.8-12-38.6c0-16.3,4.7-29,14-38.1s22.2-13.7,38.8-13.7
				c10.4,0,20.3,2.1,30,6.2l-7.1,17.1c-7.4-3.7-15-5.5-23-5.5c-9.3,0-16.7,3.1-22.2,9.3c-5.6,6.2-8.4,14.6-8.4,25.1
				c0,11,2.2,19.3,6.7,25.1s11,8.7,19.6,8.7c4.5,0,9-0.5,13.6-1.4v-21.1h-19.1V94.6h40v56.8"/>
			<path class="st0" d="M509,151.4l-7.3-24h-36.8l-7.3,24h-23.1L470.1,50h26.2l35.8,101.4H509z M496.6,109.4
				c-6.8-21.8-10.6-34.1-11.4-36.9c-0.9-2.9-1.5-5.1-1.8-6.8c-1.5,5.9-5.9,20.5-13.1,43.7C470.3,109.4,496.6,109.4,496.6,109.4z"/>
		</g>
	</g>
	<g>
		<path class="st0" d="M361.6,179.3c-1.8,0-3.3,0.8-4.3,2.3s-1.5,3.6-1.5,6.2c0,5.5,2.1,8.2,6.3,8.2c1.3,0,2.5-0.2,3.7-0.5
			c1.2-0.4,2.4-0.8,3.6-1.3v6.5c-2.4,1.1-5.1,1.6-8.1,1.6c-4.3,0-7.6-1.2-9.9-3.8c-2.3-2.5-3.4-6.1-3.4-10.8c0-3,0.6-5.6,1.7-7.8
			s2.7-4,4.8-5.2c2.1-1.2,4.5-1.8,7.4-1.8c3.1,0,6,0.7,8.8,2l-2.4,6.1c-1.1-0.5-2.1-0.9-3.2-1.2C364,179.5,362.8,179.3,361.6,179.3z
			"/>
		<path class="st0" d="M386.9,202v-28.6h7.7v22.3h11v6.2h-18.7V202z"/>
		<path class="st0" d="M448.9,187.7c0,4.8-1.2,8.5-3.5,11c-2.4,2.5-5.8,3.8-10.4,3.8c-4.5,0-7.9-1.3-10.3-3.8s-3.6-6.2-3.6-11
			s1.2-8.4,3.6-10.9s5.8-3.8,10.4-3.8c4.5,0,8,1.2,10.3,3.7S448.9,182.8,448.9,187.7z M429.2,187.7c0,5.5,1.9,8.3,5.8,8.3
			c2,0,3.4-0.7,4.3-2s1.4-3.4,1.4-6.3c0-2.9-0.5-5-1.4-6.3c-1-1.4-2.4-2-4.3-2C431.2,179.3,429.2,182.1,429.2,187.7z"/>
		<path class="st0" d="M489.3,173.4v17.2c0,3.7-1.1,6.6-3.2,8.7c-2.1,2.1-5.2,3.1-9.2,3.1c-3.9,0-6.9-1-9-3s-3.1-4.9-3.1-8.6v-17.4
			h7.8v16.8c0,2,0.4,3.5,1.1,4.4c0.8,0.9,1.9,1.4,3.3,1.4c1.6,0,2.7-0.5,3.4-1.4c0.7-0.9,1.1-2.4,1.1-4.4v-16.7h7.8V173.4z"/>
		<path class="st0" d="M531.5,187.1c0,4.8-1.3,8.4-3.9,11c-2.6,2.6-6.3,3.9-11.1,3.9h-9.2v-28.6h9.9c4.6,0,8.1,1.2,10.6,3.5
			C530.3,179.3,531.5,182.7,531.5,187.1z M523.5,187.4c0-2.6-0.5-4.6-1.6-5.8c-1-1.3-2.6-1.9-4.7-1.9H515v16h1.7
			c2.3,0,4.1-0.7,5.2-2C523,192.3,523.5,190.2,523.5,187.4z"/>
	</g>
</g>
</svg>
