<?xml version="1.0" encoding="utf-8"?>
<!-- Generator: Adobe Illustrator 25.0.1, SVG Export Plug-In . SVG Version: 6.00 Build 0)  -->
<svg version="1.1" xmlns="http://www.w3.org/2000/svg" xmlns:xlink="http://www.w3.org/1999/xlink" x="0px" y="0px"
	 viewBox="0 0 2400 1650" style="enable-background:new 0 0 2400 1650;" xml:space="preserve">
<style type="text/css">
	.st0{fill-rule:evenodd;clip-rule:evenodd;fill:#FFAA83;}
	.st1{fill-rule:evenodd;clip-rule:evenodd;fill:#713D22;}
	.st2{fill-rule:evenodd;clip-rule:evenodd;fill:#452312;}
	.st3{fill-rule:evenodd;clip-rule:evenodd;fill:#ED9870;}
	.st4{fill-rule:evenodd;clip-rule:evenodd;fill:#CC0000;}
	.st5{fill-rule:evenodd;clip-rule:evenodd;fill:#DCE8F6;}
	.st6{fill-rule:evenodd;clip-rule:evenodd;fill:#CE7C56;}
	.st7{fill-rule:evenodd;clip-rule:evenodd;fill:#A2B4CB;}
	.st8{fill-rule:evenodd;clip-rule:evenodd;fill:#C2D0DD;}
	.st9{fill-rule:evenodd;clip-rule:evenodd;fill:#B70059;}
	.st10{fill-rule:evenodd;clip-rule:evenodd;fill:#EA0072;}
	.st11{fill-rule:evenodd;clip-rule:evenodd;fill:#FF0000;}
	.st12{fill-rule:evenodd;clip-rule:evenodd;fill:#990000;}
	.st13{fill-rule:evenodd;clip-rule:evenodd;fill:#CAD9EA;}
	.st14{fill-rule:evenodd;clip-rule:evenodd;fill:#00286E;}
	.st15{fill-rule:evenodd;clip-rule:evenodd;fill:#021A44;}
	.st16{fill-rule:evenodd;clip-rule:evenodd;fill:url(#SVGID_1_);}
	.st17{fill-rule:evenodd;clip-rule:evenodd;fill:#E09785;}
	.st18{fill-rule:evenodd;clip-rule:evenodd;fill:#001746;}
	.st19{fill-rule:evenodd;clip-rule:evenodd;fill:#1B4896;}
</style>
<g id="Ñëîé_2">
</g>
<g id="Ñëîé_1">
	<g>
		<path class="st0" d="M1210.2,72.4c-1.2-2.1-2.5-4.2-3.9-6.2c-7.7-12-17.7-22.2-29.9-30.4c-2.9-2-5.8-3.8-8.8-5.5
			c3,1.6,5.9,3.3,8.8,5.3c12.2,8.3,22.2,18.4,29.9,30.4C1207.7,68,1209,70.2,1210.2,72.4z M1056.2,58.6h-0.1l0.1-0.3
			c0.3-0.5,0.5-0.9,0.8-1.3c-0.2,0.4-0.5,0.8-0.7,1.2C1056.3,58.4,1056.2,58.5,1056.2,58.6z M1069.5,39.5c-1.8,2.2-3.5,4.2-5.1,6.2
			c-0.4,0.4-0.6,0.7-0.8,1.1c-1.4,2-2.8,4-4.2,6.1C1062.4,48,1065.8,43.5,1069.5,39.5z M1198.1,178.9c-4.6,7.6-7.9,12.9-10.1,15.8
			c-5.4,7.5-11.6,13.4-18.6,17.9c-1.4,0.9-2.8,1.8-4.3,2.6c-2.6,1-4.8,1.1-6.6,0.4c-1.6-0.7-2.9-2-3.9-4
			c-8.1,10.9-18.3,20.2-30.4,27.9c-22.1,14.2-44.6,18.5-67.5,13.1c-0.8-0.2-1.7-0.4-2.6-0.7c-0.6-0.2-1.2-0.4-1.9-0.5
			c-7.8-2.8-13.1-8.7-16-17.8c-0.2-0.3-0.3-0.7-0.4-1.1c-0.5-1.9-1.1-5.7-1.6-11.2c-0.4-4.1-0.9-9.3-1.3-15.5
			c-2.7-16.2-2.4-33.5,0.8-52c1.6-8.6,4-17.8,7-27.5c11,0.1,21.2,0.7,30.7,1.9c24.7,3.1,44.3,10.1,59,21c5.2,3.8,11.4,9.1,18.6,15.9
			c1.9,1.5,3.8,2.7,5.7,3.8c0.8,0.4,1.7,0.8,2.6,1.2c0.4,4.7,0.5,9.2,0.4,13.6c2.9-0.2,7.2-0.8,12.9-1.9c2.3-8.4,6.9-14.7,13.7-18.9
			c4-2.4,7.9-3.2,11.6-2.2c3.2,0.8,6.2,2.7,9.2,5.9c0.2-0.3,0.4-0.7,0.5-1.1c0.1,0.1,0.2,0.2,0.3,0.3
			C1203,170.8,1200.4,175.1,1198.1,178.9z M927.5,630.8c-4.4,8.7-6.7,19.9-7,33.4c0,0.1,0,0.6,0,1.2c-7,3.6-15.2,2.3-24.8-3.9
			c-6.3-3.8-15.7-12.5-28.3-26.1c-3.3-5.4-7-11.3-11-17.5c-2.3-3.6-4.8-7.2-7.4-11c9-2,17.1-6.8,24.1-14.3
			c5.8-6,11.4-14.1,16.7-24.4c0.7,1.1,1.4,2.3,2.2,3.4c7.6,2.1,19.2,5.1,34.8,9C927.3,597.3,927.6,614.1,927.5,630.8z M1234.9,666
			c-0.8,2.4-1.4,5-1.6,7.9c-0.7,7.9,0.5,15.6,3.5,23.2c3.1,7.7,7.4,12.8,12.9,15.4c3.5,1.6,7.1,1.9,10.8,0.9c-1.7,1-3.3,1.8-4.9,2.6
			c-8.8,9.5-19.7,17-32.6,22.4c-11.4,4.7-23.8,7.7-37.2,9c-0.4,0.1-0.7,0.1-1.1,0.1c-13.6-1.6-23.1-10.1-28.3-25.3
			c-2.5-6.7-3.9-13.4-4.3-20.2c0-0.5,0-1,0-1.5c-0.2-6.4,0.5-12.8,2.2-19.3c2.8-13.4,10.5-21.5,23-24.1c3.4-0.7,7.1-1,11.2-0.9
			C1198.9,656.1,1214.4,659.4,1234.9,666z"/>
		<path class="st1" d="M1136.4,19.2c0,0.2,0,0.3,0,0.5c0.1,0.3,0.2,0.6,0.4,0.8c0.2,0.2,0.5,0.3,0.8,0.3c0.3,0,0.5,0.1,0.8,0.1
			c0.2,0,0.4,0.1,0.7,0.1c0.3,0.1,0.6,0,0.9-0.1c0.4-0.2,0.8-0.4,1.2-0.5l26.4,9.8c3,1.7,5.9,3.5,8.8,5.5
			c12.2,8.3,22.2,18.4,29.9,30.4c1.4,2,2.7,4.1,3.9,6.2l1.1,2c2.4,4.7,4.5,9.4,6.1,14.1c-4.3,3.6-9,7.3-14,11
			c-5.9,4.5-11.5,8.3-16.8,11.3c-0.8,0.4-1.5,0.8-2.3,1.2c-0.5,0.3-1,0.5-1.5,0.8c-0.9,0.5-1.8,0.9-2.7,1.3
			c-8.7,4.2-16.6,6.3-23.6,6.3c-2.2,0-4.4-0.3-6.7-0.8c-9.7-2.5-20.7-10.2-33-23.2c-0.7-0.7-1.3-1.4-2-2.2c-0.8-1-1.6-1.9-2.3-2.8
			c-2.1-2.6-4.2-5.1-6.2-7.5c-5-6.1-9.6-11.6-13.6-16.6c-6.2-7.5-11.2-13.6-15.1-18.3c-0.2-0.2-0.4-0.5-0.7-0.7
			c-0.2-0.3-0.4-0.7-0.7-0.9c-2.3-2.9-4.6-5.6-6.7-8.1l18.5-14c2.3-1.3,4.7-2.5,7.1-3.5c2.2-0.7,4.4-1.4,6.6-1.9l19.5-2.3
			C1126.2,17.8,1131.3,18.3,1136.4,19.2z M1219.1,123.2c0,0.2-0.1,0.5-0.1,0.7c-0.2,0-0.4,0-0.5,0c-0.3,0.1-0.5,0.2-0.7,0.4
			c-0.2,0.2-0.3,0.4-0.4,0.7c-0.1,0.4-0.2,0.9-0.3,1.3c-0.1,0.3,0,0.6,0.1,0.9c0.2,0.3,0.4,0.4,0.7,0.5l0.3,0.1
			c0,0.2-0.1,0.4-0.1,0.7c-0.1,0.6-0.3,1.2-0.4,1.8c-4.9,2.4-10.4,5.2-16.4,8.5c-4.8,2.6-10,5.6-15.6,8.8c-3.5,1.9-6.8,3.8-10,5.5
			c-7.5,4.3-13.9,8.1-19.1,11.4c-1.1-7.2-2.6-14.6-4.6-22.4c5-0.7,10.1-1.9,15.2-3.5c9.1-2.8,18.4-7,27.9-12.5
			c2.1-1.2,4.3-2.5,6.5-3.9c0.7-0.5,1.4-0.9,2-1.3c0.5-0.4,1-0.7,1.5-1.1c0.5-0.3,1.1-0.7,1.6-1.1c0.1-0.1,0.3-0.2,0.4-0.3
			c5.3-3.6,10-7.1,14-10.4l0.1-0.1C1220.7,113.3,1220,118.4,1219.1,123.2z"/>
		<path class="st2" d="M1069.5,39.5c2.2,2.5,4.4,5.2,6.7,8.1c0.2,0.3,0.5,0.6,0.7,0.9c0.2,0.2,0.5,0.4,0.7,0.7
			c3.9,4.7,8.9,10.8,15.1,18.3c4,4.9,8.6,10.5,13.6,16.6c2,2.4,4.1,5,6.2,7.5c0.7,0.9,1.5,1.9,2.3,2.8c0.7,0.8,1.4,1.5,2,2.2
			c12.3,12.9,23.3,20.7,33,23.2c2.3,0.5,4.6,0.8,6.7,0.8c7,0,14.8-2.1,23.6-6.3c0.9-0.4,1.8-0.9,2.7-1.3c0.5-0.3,1-0.5,1.5-0.8
			c0.8-0.4,1.5-0.8,2.3-1.2c5.3-3.1,10.9-6.8,16.8-11.3c5-3.8,9.7-7.5,14-11c2,5.6,3.3,11.3,4,17.2c-0.2,0.7-0.3,1.4-0.3,2.2
			l-0.1,0.1c-4,3.3-8.7,6.8-14,10.4c-0.1,0.1-0.3,0.2-0.4,0.3c-0.6,0.4-1.1,0.7-1.6,1.1c-0.5,0.3-1,0.7-1.5,1.1
			c-0.7,0.4-1.3,0.9-2,1.3c-2.2,1.4-4.3,2.7-6.5,3.9c-9.5,5.6-18.8,9.7-27.9,12.5c-5.1,1.6-10.2,2.8-15.2,3.5
			c-0.2-0.5-0.4-1.1-0.5-1.6c-15.3-1.1-29.2-5.9-41.8-14.5c-9.3-6.2-16.7-13.5-22.1-22.1c-2.3-3.6-4.3-7.5-5.9-11.6
			c-1.6-4.6-4.3-8.7-8-12.3c-2.7-2.6-6-4.9-9.8-6.9c-0.7,1.3-1.3,2.5-1.9,3.6c-2.5,4.9-4.5,8.8-5.9,11.7c-3.2,5.9-5.8,11-7.8,15.4
			v-0.3c0-0.3-0.1-0.5-0.1-0.8c0-0.2-0.1-0.5-0.1-0.7l3.2-28.3l0.5-4.7c0.1-0.2,0.2-0.4,0.3-0.5c1.1-3.4,2.5-6.7,4.2-10
			c0.1-0.1,0.1-0.2,0.1-0.4c0.2-0.4,0.4-0.8,0.7-1.2c0.4-0.7,0.8-1.4,1.2-2.2c0.1-0.2,0.2-0.3,0.3-0.4v-0.1c0.3-0.5,0.6-1,0.9-1.5
			c1.3-2,2.7-4.1,4.2-6.1c0.2-0.4,0.5-0.7,0.8-1.1C1066,43.7,1067.7,41.7,1069.5,39.5z M1217.7,130.3l-5,18.7
			c-2,5.9-4.4,11.5-7.1,16.6c-0.2,0.4-0.3,0.7-0.5,1.1c-2.9-3.2-6-5.2-9.2-5.9c-3.7-1-7.6-0.3-11.6,2.2
			c-6.8,4.1-11.4,10.4-13.7,18.9c-5.7,1.1-10.1,1.7-12.9,1.9c0.1-4.4,0-8.9-0.4-13.6c-0.2-1.8-0.4-3.7-0.7-5.5
			c5.2-3.3,11.6-7.1,19.1-11.4c3.1-1.7,6.4-3.6,10-5.5c5.6-3.2,10.8-6.1,15.6-8.8C1207.3,135.5,1212.8,132.7,1217.7,130.3z"/>
		<path class="st3" d="M1157.2,170c-0.9-0.4-1.7-0.8-2.6-1.2c-1.9-1-3.8-2.3-5.7-3.8c-7.2-6.8-13.4-12.1-18.6-15.9
			c-14.7-10.9-34.3-17.9-59-21c-9.5-1.2-19.7-1.8-30.7-1.9c2-6.6,4.2-13.4,6.7-20.2c0.2-0.4,0.4-0.8,0.5-1.3
			c0.1-0.3,0.2-0.5,0.3-0.8c2-4.3,4.6-9.4,7.8-15.4c1.4-2.9,3.4-6.8,5.9-11.7c0.6-1.1,1.2-2.3,1.9-3.6c3.8,2,7.1,4.3,9.8,6.9
			c3.7,3.5,6.3,7.6,8,12.3c1.6,4.1,3.6,7.9,5.9,11.6c5.4,8.6,12.8,15.9,22.1,22.1c12.6,8.6,26.5,13.5,41.8,14.5
			c0.2,0.5,0.4,1.1,0.5,1.6c2,7.7,3.5,15.2,4.6,22.4C1156.8,166.4,1157,168.2,1157.2,170z M1051.8,68.6c1.1-3.4,2.5-6.7,4.2-10h0.1
			c-1.7,3.3-3,6.6-4.2,10c-0.1,0.2-0.2,0.3-0.3,0.5C1051.8,69,1051.8,68.8,1051.8,68.6z"/>
		<path class="st4" d="M1183.8,304.7c-6,3.7-12.5,7.4-19.5,11.2c-0.7,0.9-1.3,1.3-1.9,1.1c-1.4-0.5-2.2-3.5-2.2-8.9
			c0-2.5,0.8-5.4,2.4-8.9c10.5-9.8,16.6-18.4,18-25.9c0.5-2.7,1-5.2,1.3-7.7c0.4-1.4,0.5-2.7,0.5-3.9c0.6-5.1,0.9-9.8,0.8-14
			c-1.1-12.5-8-21.1-20.7-25.7c0.5-2.5,1.3-4.8,2.4-6.9c1.5-0.8,2.9-1.6,4.3-2.6c7-4.5,13.2-10.4,18.6-17.9
			c2.2-2.9,5.5-8.1,10.1-15.8c5.1,2.2,9.8,4.8,14.1,7.7c10.7,7.6,17.8,16.7,21.4,27.2c1.9,5.4,2.8,11.1,2.8,17.2
			c0,16-4.9,30.2-14.8,42.6c-2.8,3.4-6.1,6.8-9.8,10.2C1204.4,290.7,1195.1,297.7,1183.8,304.7z M1028.8,286.5
			c-0.4-1.3-0.8-3.5-1.3-6.5c-2.1-13.4-1.2-28.4,2.8-45c0.7-3.2,1.6-6.4,2.6-9.7c0.4-1.4,0.9-2.8,1.3-4.2c0.6,5.5,1.1,9.2,1.6,11.2
			c0.1,0.4,0.2,0.7,0.4,1.1c2.9,9.1,8.3,15,16,17.8c0.6,0.2,1.3,0.4,1.9,0.5c0.9,0.2,1.7,0.5,2.6,0.7c-0.6,1.2-1.3,2.4-1.9,3.5
			c-0.4,0.8-0.8,1.6-1.2,2.3c-0.7,1.3-1.4,2.5-2.2,3.8c0-0.9-0.1-1.7-0.3-2.4c-0.2-1.1-0.5-2.3-1.1-3.8c-0.2-0.4-0.4-0.7-0.5-1.1
			C1040.4,266.6,1033.5,277.2,1028.8,286.5z"/>
		<path class="st5" d="M1051.4,262c0.2,1.9,0.3,4.1,0.3,6.7c0,1,0,2.1,0,3.2c-0.4,5.1,0.6,15,2.8,29.6l-1.8-0.3
			c-10.4,11.3-15.6,18.5-15.6,21.6c-0.1,1.8,0.3,5.4,1.1,11l-4,7.5c-2,0-3.7-0.8-5.1-2.4c-1.4-2.2-2.5-4.6-3.2-7.3
			c-1.6-5.4-2.8-11-3.5-16.7c-0.5-3.6-0.5-7.3,0.3-11c1-5.3,3.1-11.1,6.2-17.5c4.7-9.4,11.6-19.9,20.7-31.8c0.2,0.4,0.4,0.7,0.5,1.1
			c0.5,1.4,0.9,2.7,1.1,3.8C1051.3,260.3,1051.4,261.1,1051.4,262z M1162.7,222c12.8,4.7,19.7,13.2,20.7,25.7
			c0.1,4.2-0.2,8.9-0.8,14c0,1.2-0.2,2.5-0.5,3.9c-0.4,2.4-0.8,5-1.3,7.7c-1.5,7.4-7.5,16.1-18,25.9c-3.5,3.2-7.4,6.5-11.9,10
			c-18,13.7-44.4,29.4-79.5,47.1c-0.2-0.8-0.5-1.5-0.7-2.3c-0.4-1.2-0.8-2.5-1.2-3.8c-3.4-11.7-5.7-22.5-6.7-32.5
			c-0.5-4.7-0.8-9.2-0.8-13.5c0.8-0.4,1.6-0.7,2.4-1.1c0.8-0.4,1.7-0.7,2.6-1.1c29.4-12.9,52-25.6,68-38
			c16.7-13.3,25.3-21.7,25.9-25.3c0.5-3.6,1.1-9.2,1.6-17C1162.5,221.9,1162.6,222,1162.7,222z M889.8,568.2
			c-5.3,10.2-10.9,18.4-16.7,24.4c-7.1,7.5-15.1,12.3-24.1,14.3c-1.5,0.4-3.1,0.6-4.7,0.8c-5.7-10-11.7-19.5-18.1-28.4
			c-11-15.4-23.2-29.2-36.4-41.3c-0.5-0.6-1.1-1.2-1.6-1.8c-2.7-3.1-5.4-6.3-8.1-9.8c-7.6-9.9-15.4-21.5-23.2-35
			c-12.4-22.6-21.7-39.3-28-50.1c-10.8-21-16.7-33.5-17.8-37.4c-4.9-15.1-3.8-27.9,3.2-38.5c2.7-3.3,5.6-6.5,8.6-9.7
			c2.5-2.6,5.2-5.2,7.9-7.8c3.1-2.9,6.4-5.8,9.8-8.6c5.3-4.3,10.9-8.5,17-12.7c1.5-1,3.1-2,4.7-3.1c3.7-2.3,7.7-4.7,12-7.1
			c3.3-1.9,6.7-3.8,10.2-5.8c4.8-2.6,9.9-5.2,15.2-7.9c2.8-1.4,5.8-2.8,8.8-4.3v0.1c1.3-0.9,2.5-1.7,3.8-2.6
			c7.9-5.3,15.8-10.2,23.7-14.7c2.9-1.6,5.7-3.2,8.6-4.7c1.3-0.7,2.7-1.5,4-2.2c1.1-0.5,2.1-1.1,3.2-1.6c6-2.9,11.7-5.8,17.2-8.6
			c7.8-3.9,15.2-7.8,22.1-11.6c13.3-7.4,25.4-15.8,36.4-25.3c7.5-5,14.8-7.4,21.8-7c2.5,0.2,4.8,0.7,7,1.6
			c5.7,0.7,14.3,2.8,25.6,6.2c6.8,2,12.7,3.7,17.5,5.1c-5,2.3-9.8,4.8-14.3,7.5c-34,20.6-52.7,53.7-56,99.4l-0.3,9.7
			c0,0.9,0,2,0,3.2c0.2,9.3-1.1,17.3-3.8,24c0.7-8.3,1.6-16.5,2.7-24.8v-0.3c0.2-0.2,0.3-0.4,0.3-0.8v-0.3c0-0.2,0.2-0.4,0.5-0.5
			c0-0.4-0.2-0.6-0.5-0.8c-12.8,4.8-22.7,9.8-29.6,15c-1.2,0.8-2.2,1.7-3.2,2.6c-3.1,2.6-6.5,5.1-10.2,7.4c-3,1.9-6.3,3.7-9.7,5.4
			c-2.5,1.3-5.1,2.5-7.8,3.6c-4.9-0.6-9.6-1.6-13.9-3.1c-4.9,1.8-8,2.7-9.3,2.6c-18.1,0-32.8-4.5-43.9-13.5
			c-10.1-8.1-18.2-11.7-24.5-10.8c3.8,10.8,12.1,26,25.1,45.8c0.7,1.1,1.4,2.2,2.2,3.2c3.7,5.5,7,10.2,10,14.1
			c1.5,2.1,3,3.9,4.3,5.5l9.8,18.3l22.1,41.4l10.9,20.3l8.9,16.6l22.1,41.1C890.9,566,890.3,567.1,889.8,568.2z M1354.1,391.3
			c6.6,9,13.2,18.5,19.8,28.6c9.4,14,14.8,22.3,16.2,24.8c8.6,10.4,17.8,24.4,27.5,42l24.2,44.2c5.7,10.1,9.2,19.6,10.5,28.6
			c1.4,11.3-0.7,20.9-6.5,28.8c-11.3,15.3-29,30.7-53.1,46.3c-13.5,8.4-23.5,14.7-30.2,18.9c-12,7.5-21.7,14.2-29.1,19.9
			c-6.1,4.7-17,10.4-32.6,17.2c-14.5,6.5-25.1,12.6-31.8,18.3c-2.9,2.3-5.8,3.8-8.6,4.4c-3.6,1-7.2,0.7-10.8-0.9
			c-5.6-2.5-9.9-7.6-12.9-15.4c-3.1-7.5-4.2-15.3-3.5-23.2c0.3-2.9,0.8-5.6,1.6-7.9c1.4-4.6,3.9-8.2,7.3-10.9
			c12.7-9.2,30-24.9,51.7-47.1c13.3-14,24.9-25.3,34.8-33.9c1.3,0.2,2.2,0.3,3,0.3c44.9-30.9,67.4-46.6,67.6-47.1
			c-0.2-3.1-0.7-4.9-1.6-5.7c-1.3-0.5-2.5-1.1-3.8-1.6v1.6c-17.4,3.2-28.7,4.8-33.9,4.8c-16.3-0.7-30-1.2-40.9-1.3
			c-8-9.8-16.1-19-24.1-27.6l-0.1,0.1c-6.3-7-13.6-16.6-22.1-28.8c-1.1-1.6-2.1-3.1-3-4.3c-0.4-0.5-0.8-1.2-1.3-1.9
			c-2.7-4.5-5.2-8.3-7.5-11.3l-4-5.7c-0.2-0.5-0.4-0.9-0.5-1.1c-1.8-4.7-3.2-9.6-4.3-14.8c-2.5-10.1-3.9-16.6-4-19.7
			c0.1-20.7,2.4-37.9,6.9-51.7c4.4-13.4,10.8-23.5,19.3-30.4c7-5.7,14.8-8.9,23.4-9.4c3.2,4.8,8.1,11.1,14.5,18.9
			c6.8,9,16,20.7,27.5,35C1344.3,378.3,1349.2,384.7,1354.1,391.3z"/>
		<path class="st6" d="M1165.1,215.2c-1.1,2-1.9,4.3-2.4,6.9c-0.1-0.1-0.2-0.1-0.3-0.1c-0.5,7.7-1.1,13.4-1.6,17
			c-0.5,3.6-9.2,12-25.9,25.3c-16,12.4-38.7,25.1-68,38c-3.2-3.4-5.8-8.1-7.7-14.3c-1.3-4.1-2.6-10.8-4-19.9c-0.2-1.4-0.4-2.7-0.7-4
			c-0.3-2.1-0.6-3.9-0.9-5.7c0.4-0.7,0.8-1.5,1.2-2.3c0.6-1.1,1.3-2.3,1.9-3.5c22.9,5.5,45.4,1.1,67.5-13.1
			c12.2-7.7,22.3-17,30.4-27.9c1,2,2.3,3.3,3.9,4C1160.3,216.2,1162.5,216.1,1165.1,215.2z"/>
		<path class="st7" d="M1038.2,334c0.5,3.4,1.1,7.5,1.9,12.4c-7.4,10.5-13.8,22.3-19.4,35.6c0-5.8,0-8.8,0-9.2
			c0-13.4,1.7-27,5.1-40.9c0.7,2.7,1.8,5.1,3.2,7.3c1.4,1.6,3.1,2.4,5.1,2.4L1038.2,334z M1066.9,302.2c-0.9,0.4-1.7,0.7-2.6,1.1
			l-9.8-1.6c-2.2-14.7-3.2-24.5-2.8-29.6c0-1.2,0-2.2,0-3.2c0.9-1.6,1.9-3.2,2.8-4.8c0.2,1.3,0.5,2.6,0.7,4c1.4,9.2,2.8,15.8,4,19.9
			C1061.2,294,1063.7,298.8,1066.9,302.2z M1177.4,657.1c-12.5,2.6-20.2,10.7-23,24.1c-1.7,6.5-2.4,12.9-2.2,19.3
			c-0.3,0.2-0.6,0.3-0.9,0.5c1.2-15.5,1.8-24.8,1.8-27.9c0-7.9-2-27.9-5.9-60.1c-4.3-30.5-6.5-46.2-6.5-47.1
			c0-3.1,11.8-24.3,35.3-63.8c28.9-48.1,45-75.2,48.2-81.1c4.1-7.2,8-19,11.6-35.6c2.6-12.5,5.2-22.4,8-29.8c1-2.8,2-5.3,3.1-7.4
			c7-14.2,18.9-27,35.8-38.5c5.2,2.3,9.7,4.6,13.5,6.7c0.2,0.7,0.6,1.3,1.3,1.9c-8.6,0.5-16.4,3.7-23.4,9.4
			c-8.5,6.9-14.9,17-19.3,30.4c-4.5,13.8-6.8,31-6.9,51.7c0.2,3.1,1.5,9.6,4,19.7c1.1,5.2,2.5,10.1,4.3,14.8
			c0.2,0.2,0.4,0.5,0.5,1.1c-2.2-2.9-3.8-5.1-4.9-6.7c-4.1,9.5-13.5,25.8-28,48.8c-11.8,17.8-21.8,36.6-29.9,56.6
			c-7.2,17.6-11.4,35.9-12.7,55c-0.7,8.4-1.4,17.1-2.2,25.9c-0.4,5.2-0.8,10.9-1.3,17C1177.6,647.8,1177.5,652.8,1177.4,657.1z
			 M1162.7,299.2c-1.6,3.5-2.4,6.4-2.4,8.9c0,5.4,0.7,8.3,2.2,8.9c0.5,0.2,1.2-0.2,1.9-1.1c7-3.8,13.5-7.5,19.5-11.2
			c-0.8,1.1-1.7,2.3-2.6,3.4c-3.4,4.4-8.4,9.4-15,14.8c-7.2,6-16.3,12.5-27.3,19.7c-19.6,12.8-34.7,24.8-45.1,36
			c-1.4,1.5-2.7,3-3.9,4.4c-17.4,20.1-30.1,46.1-38,77.9c-4,17.2-10.3,62.2-19.1,135c-2.9,24.1-5.7,43.2-8.2,57.2
			c-0.8-32.8-1.3-58-1.5-75.8c0-36.8,2.7-68.1,8.1-93.7c0.9-19.4,5.8-43.7,14.8-73c5.4-18.1,9.8-32.9,13.2-44.6
			c3.4-4.1,7.2-8,11.4-11.9c0.2,0.8,0.4,1.5,0.7,2.3c35-17.8,61.5-33.5,79.5-47.1C1155.3,305.7,1159.2,302.4,1162.7,299.2z"/>
		<path class="st8" d="M1025.9,331.8c-3.4,13.9-5.1,27.6-5.1,40.9c0,0.3,0,3.4,0,9.2c-4.1,9.7-7.7,20.1-10.8,31.3
			c-3.6,12.9-9.2,41.7-17,86.2c-4,19.6-6.6,45.1-8.1,76.5c-2.2,40.6-3.8,66-4.9,76.2c-2,13.6,5.4,27.9,22.1,42.8
			c5.4-1.1,10.3-3.9,14.8-8.4c4.5-4.7,7.2-9.7,8.1-15.1c-0.2-6.4-0.3-12.5-0.4-18.5c2.5-14,5.3-33.1,8.2-57.2
			c8.8-72.7,15.2-117.7,19.1-135c7.9-31.8,20.6-57.7,38-77.9c1.2-1.5,2.5-2.9,3.9-4.4c10.4-11.1,25.5-23.1,45.1-36
			c11-7.2,20.1-13.7,27.3-19.7c6.6-5.4,11.5-10.4,15-14.8c0.9-1.1,1.7-2.2,2.6-3.4c11.2-7.1,20.6-14,28-20.9
			c7.4,5.1,16.6,9.3,27.3,12.7c6.3,2.2,16.2,4.8,29.6,8.1c5,1.6,9.6,3.3,13.7,5.1c-16.9,11.5-28.8,24.3-35.8,38.5
			c-1,2.1-2.1,4.6-3.1,7.4c-2.7,7.4-5.4,17.3-8,29.8c-3.6,16.5-7.4,28.4-11.6,35.6c-3.2,5.9-19.3,33-48.2,81.1
			c-23.5,39.5-35.3,60.8-35.3,63.8c0,0.9,2.2,16.6,6.5,47.1c4,32.1,5.9,52.2,5.9,60.1c0,3.1-0.6,12.4-1.8,27.9
			c-0.1,0-0.3,0.1-0.4,0.1c-10.3,5.6-20.9,10.2-31.7,13.9c-12.4,3.7-25.1,6.4-38.1,7.9c-28.7,3.1-56.2,0.2-82.4-8.6
			c-16.9-4.7-29.4-8.9-37.4-12.7c-7-3.5-13-7.4-18.2-11.9c-2.6-2.6-4.9-5.4-6.9-8.3c-2.5-7-4-16-4.6-26.9c-0.4-12.4-0.9-21.7-1.6-28
			c-0.9,1.3-1.7,2.8-2.4,4.3c0-16.7-0.2-33.5-0.8-50.2c-0.1-5.4-0.3-10.9-0.5-16.3c-1.3-25.1-2.5-50.2-3.8-75.2
			c-0.9-29.3,0-58.6,2.7-88.1c-0.1-1.3-0.2-2.6-0.3-3.9c-0.2-5.9-0.1-11.8,0.3-17.6c0.1-0.9,0.2-1.8,0.3-2.7c2.7-6.6,4-14.6,3.8-24
			c0-1.3,0-2.3,0-3.2l0.3-9.7c3.3-45.7,22-78.8,56-99.4c4.5-2.8,9.3-5.3,14.3-7.5c3.1,0.9,5.7,1.5,7.8,1.9
			c8.3,1.5,15.9,1.6,22.8,0.3c-4,16.6-4.9,31.6-2.8,45c0.5,3,1,5.1,1.3,6.5c-3.1,6.4-5.2,12.3-6.2,17.5c-0.7,3.8-0.8,7.5-0.3,11
			C1023.1,320.8,1024.2,326.4,1025.9,331.8z M1051.4,262c0.7-1.2,1.4-2.5,2.2-3.8c0.3,1.7,0.6,3.6,0.9,5.7c-0.9,1.6-1.9,3.2-2.8,4.8
			C1051.8,266.2,1051.7,263.9,1051.4,262z M1070.7,354c-4.2,3.8-8,7.8-11.4,11.9c1.1-3.9,2.1-7.4,3-10.5c0.2,0.1,0.4,0.1,0.5,0.1
			l6.7-5.3C1069.9,351.5,1070.3,352.8,1070.7,354z"/>
		<path class="st9" d="M1040.1,346.3c-0.8-4.9-1.4-9-1.9-12.4c-0.8-5.6-1.2-9.3-1.1-11c0-3.1,5.2-10.2,15.6-21.6l1.8,0.3l9.8,1.6
			c-0.8,0.4-1.6,0.7-2.4,1.1c0,4.3,0.3,8.8,0.8,13.5c1.1,9.9,3.3,20.7,6.7,32.5l-6.7,5.3c-0.2,0-0.3-0.1-0.5-0.1
			c-4-1-8-2.1-12.1-3.4c-3.1-0.9-6.3-1.9-9.4-3C1040.5,348.1,1040.3,347.2,1040.1,346.3z"/>
		<path class="st10" d="M1059.3,365.9c-3.4,11.6-7.8,26.5-13.2,44.6c-9,29.3-13.9,53.6-14.8,73c-5.4,25.7-8.1,56.9-8.1,93.7
			c0.2,17.8,0.6,43.1,1.5,75.8c0.1,5.9,0.2,12.1,0.4,18.5c-0.9,5.4-3.6,10.4-8.1,15.1c-4.5,4.5-9.4,7.3-14.8,8.4
			c-16.7-14.9-24.1-29.2-22.1-42.8c1.1-10.2,2.7-35.7,4.9-76.2c1.4-31.4,4.1-56.9,8.1-76.5c7.7-44.5,13.4-73.3,17-86.2
			c3.1-11.2,6.7-21.6,10.8-31.3c5.6-13.2,12-25.1,19.4-35.6c0.2,0.9,0.4,1.8,0.5,2.7c3.2,1.1,6.3,2,9.4,3c4.1,1.2,8.1,2.4,12.1,3.4
			C1061.3,358.5,1060.3,362,1059.3,365.9z"/>
		<path class="st11" d="M1464.8,1399.1c35.6-93.1,64-180.1,85.3-261c0.4-0.4,0.9-0.7,1.3-1.1c49.1-39.3,90.1-80.4,123.1-123.5
			c-31.5,124.7-102.8,257-213.9,396.7C1462.1,1406.5,1463.4,1402.8,1464.8,1399.1z M1677.1,1002.8c-0.6,0.9-1.3,1.7-1.9,2.6
			c-32.8,43.9-73.9,85.9-123.4,125.8c101.2-389.8,35.3-636.4-197.7-739.9c-4.9-6.7-9.8-13-14.7-19.1c-11.5-14.4-20.7-26-27.5-35
			c-6.5-7.7-11.3-14-14.5-18.9c-0.7-0.5-1.2-1.2-1.3-1.9c-3.8-2.2-8.3-4.4-13.5-6.7c-4.1-1.8-8.7-3.5-13.7-5.1
			c-13.5-3.2-23.4-5.9-29.6-8.1c-10.8-3.3-19.9-7.5-27.3-12.7c3.8-3.4,7.1-6.8,9.8-10.2c9.9-12.4,14.8-26.6,14.8-42.6
			c0-6.1-0.9-11.9-2.8-17.2c281.6,68.1,433.2,262.7,454.6,583.8C1697.4,863.6,1693.7,932,1677.1,1002.8z"/>
		<path class="st12" d="M1550.1,1138.1c-21.3,80.9-49.7,167.9-85.3,261c-5.6,6.8-11.2,13.2-16.8,19.1
			c16.4-86.9,21.3-159.6,14.8-218.1c0.2-0.1,0.4-0.2,0.5-0.3C1494.6,1179.8,1523.5,1159.2,1550.1,1138.1z M1551.8,1131.2
			c-0.4,0.3-0.9,0.7-1.3,1.1c-26.9,21.7-56.3,42.9-88.1,63.4c-8.9-73-36.1-123.2-81.5-150.6c-4.6-2.8-9.2-5.4-13.7-7.8
			c-0.4-0.6-0.8-1.3-1.2-1.9c-0.1-0.2-0.2-0.4-0.4-0.5c-0.7-0.4-1.5-0.8-2.3-1.2c-0.3-0.1-0.6-0.2-0.9-0.1c-0.3,0-0.5,0.2-0.7,0.4
			c-0.1,0.1-0.2,0.2-0.3,0.3c-43.6-22.5-84.3-31.2-122.2-26c-0.5-2.9-0.9-5.7-1.3-8.6c-5.9-54.6-11.2-95.3-15.9-122
			c-2.2-7.7-6.6-25-13.2-51.7c-5.2-21.4-10.1-38.3-14.5-50.9c-3.9-7.8-6.7-17-8.3-27.6c13.4-1.3,25.8-4.3,37.2-9
			c12.9-5.4,23.8-12.8,32.6-22.4c1.5-0.7,3.2-1.6,4.9-2.6c2.8-0.7,5.7-2.2,8.6-4.4c6.6-5.7,17.2-11.9,31.8-18.3
			c15.6-6.8,26.5-12.6,32.6-17.2c7.4-5.8,17.1-12.4,29.1-19.9c6.6-4.1,16.7-10.4,30.2-18.9c24.1-15.6,41.8-31.1,53.1-46.3
			c5.7-7.9,7.9-17.5,6.5-28.8c-1.3-9-4.8-18.5-10.5-28.6l-24.2-44.2c-9.7-17.6-18.9-31.6-27.5-42c-1.4-2.5-6.8-10.8-16.2-24.8
			c-6.6-10-13.2-19.6-19.8-28.6C1587.1,494.8,1653,741.4,1551.8,1131.2z M1318.9,524.9c8.8,11,17.7,22.7,26.7,35.3
			c-5,3.4-10.7,8-17,13.7c-9.9,8.6-21.5,19.9-34.8,33.9c-21.7,22.3-39,38-51.7,47.1c-3.4,2.7-5.8,6.3-7.3,10.9
			c-20.5-6.6-36-9.8-46.3-9.8c-4.1-0.1-7.8,0.2-11.2,0.9c0.1-4.2,0.2-9.3,0.4-15.2c0.5-6.1,1-11.8,1.3-17c0.7-8.8,1.4-17.4,2.2-25.9
			c1.3-19,5.5-37.4,12.7-55c8.1-19.9,18.1-38.8,29.9-56.6c14.5-23,23.9-39.2,28-48.8c1.1,1.6,2.7,3.9,4.9,6.7l4,5.7
			c2.3,3.1,4.8,6.8,7.5,11.3c0.5,0.7,1,1.3,1.3,1.9c0.9,1.3,1.9,2.7,3,4.3c8.4,12.2,15.8,21.8,22.1,28.8l0.1-0.1
			C1302.9,506,1310.9,515.2,1318.9,524.9z M1080.3,1137.1c-0.3-3.3-0.5-6.6-0.8-9.8c0-0.6-0.1-1.2-0.1-1.9
			c9.4-34.8,17.6-69.1,24.8-103c2.4,7.7,5,16.3,7.7,26c3.2,11.3,6.4,21.4,9.7,30.3C1107.1,1095.3,1093.4,1114.8,1080.3,1137.1z"/>
		<path class="st13" d="M1318.9,524.9c11,0.2,24.6,0.6,40.9,1.3c5.2,0,16.5-1.6,33.9-4.8v-1.6c1.3,0.5,2.5,1.1,3.8,1.6
			c0.9,0.7,1.4,2.6,1.6,5.7c-0.2,0.5-22.7,16.3-67.6,47.1c-0.7,0-1.7-0.1-3-0.3c6.3-5.7,11.9-10.3,17-13.7
			C1336.6,547.7,1327.7,535.9,1318.9,524.9z M875.5,379.6c0.4,0.1,0.7,0.1,1.1,0.1c-2.9,1.5-5.8,3-8.8,4.4
			c-9,4.4-18.2,8.6-27.7,12.4c-1,0.4-2.1,0.8-3.1,1.2c-10,3.7-17.9,6.5-23.7,8.2c-2.3,0.8-4.3,1.3-5.9,1.8l5.9,11.2l4.3,8.2
			c-1.3-1.6-2.8-3.5-4.3-5.5c-3-3.9-6.3-8.6-10-14.1c-0.7-1-1.4-2.1-2.2-3.2c-12.9-19.8-21.3-35-25.1-45.8
			c6.3-0.9,14.5,2.7,24.5,10.8c11.1,9,25.8,13.5,43.9,13.5c1.3,0.1,4.4-0.7,9.3-2.6c4.3,1.5,8.9,2.5,13.9,3.1
			C870.5,382.1,873.1,380.9,875.5,379.6z"/>
		<path class="st14" d="M1302.2,1226.2c0.7,4.6,1.3,9.3,1.9,14c1.1,7.5,2.5,21,4.4,40.4c-0.1,0-0.3,0.1-0.4,0.1
			c-32.7,15.4-66.2,29.7-100.6,42.8c-0.2-1.4-0.4-2.8-0.7-4.2c-5.6-31.4-11.2-58.6-17.1-81.8c-4.5-18.1-9.1-33.7-13.9-46.7
			c-5.9-8.8-12.8-22.5-20.7-41.2c-8.4-19.4-15.2-33.2-20.2-41.5c-4.6-7.8-9.1-17.6-13.5-29.5c-3.3-8.9-6.5-19-9.7-30.3
			c-2.7-9.7-5.3-18.3-7.7-26c-4.9-15.7-9-27.3-12.5-34.9c-9.2-24.2-15.8-42.4-19.9-54.4c-3.1-8.1-5.7-15.8-7.8-23.2l0.3-2.2
			c-0.2-0.5-0.5-0.9-0.7-1.3c-0.6-1.3-1.2-2.6-1.8-3.8c-2.9-8.8-5.4-14.2-7.5-16.2c-19.6-46.5-29.4-85.6-29.4-117.2
			c0-6.5,1.8-21.7,5.4-45.8c1.4,0.2,2.8,0.4,4.3,0.5c13.2,1.5,26.7,1.6,40.7,0.3c15.1-1.4,29.8-4.5,44-9.3
			c10.8-3.7,21.3-8.3,31.7-13.9c0.1-0.1,0.3-0.1,0.4-0.1c0.3-0.2,0.6-0.4,0.9-0.5c0,0.5,0,1,0,1.5c0.4,6.8,1.8,13.5,4.3,20.2
			c5.2,15.3,14.6,23.7,28.3,25.3c0.3,0,0.7-0.1,1.1-0.1c1.7,10.6,4.5,19.8,8.3,27.6c4.5,12.6,9.3,29.5,14.5,50.9
			c6.6,26.8,11,44,13.2,51.7c4.7,26.8,10,67.4,15.9,122c0.4,2.9,0.9,5.8,1.3,8.6c7,44,17.7,80.4,32.1,109.1
			c8,16.2,14.8,34.8,20.3,55.6c3.3,12.5,6.2,25.8,8.6,40C1300.9,1217.3,1301.6,1221.7,1302.2,1226.2z M1333.9,1429.1
			c1.4,8.5,1.8,15.9,1.2,22.2c-2.4,4-5.3,7.6-8.8,10.8c-1.7,1.6-3.6,3.1-5.5,4.4c-2.4,1.6-5,3.1-7.8,4.4c-8.8,4.3-18.4,6.3-28.8,5.9
			c-10.4-0.2-19.9-2.7-28.6-7.5c-0.1-0.1-0.3-0.2-0.4-0.3c-6.2-3.6-11.3-8.2-15.5-13.6c-1.8-2.3-3.4-4.8-4.8-7.4
			c-7.5-24.1-16.4-64.3-26.5-120.4c0.1,0,0.2-0.1,0.3-0.1c34.3-13.1,67.7-27.3,100.3-42.7c0.6,5.8,1.2,12.1,1.9,18.9
			c2.7,26.6,5.2,47.7,7.5,63.3c0.9,7,4.4,21,10.5,42c1.6,5.4,2.9,10.4,3.9,15.1c-0.2,0.3-0.4,0.6-0.7,0.9c-0.1,0.2-0.2,0.3-0.3,0.5
			c-0.1,0.2-0.1,0.4,0,0.5c0.1,0.6,0.3,1.3,0.4,1.9c0.1,0.3,0.3,0.6,0.5,0.8c0.3,0.2,0.6,0.3,0.9,0.3H1333.9z M1004.6,1385.5
			c-42.8,10.1-86.6,18.7-131.5,25.9c8.9-9.6,20.3-19.1,34.2-28.7c13.8-9.2,24-16.1,30.4-20.7c6.1-4.5,11.5-9,16.3-13.3
			c-0.4,10.8,4.6,19.5,14.9,26.3c8.1,5,18.7,8.6,31.8,10.8C1002.1,1385.6,1003.3,1385.6,1004.6,1385.5z M1065.2,1365.7
			c-1.2,1.9-2.6,3.8-4.3,5.5c-0.7,0.2-1.5,0.5-2.3,0.7c-7.2,2-14.5,3.9-21.8,5.8c3.2-1.5,6.4-3.1,9.6-5c8.6-4.8,16.1-10.5,22.6-17.2
			C1068.4,1359,1067.1,1362.4,1065.2,1365.7z M868.8,1416.3c0.5-0.1,1.1-0.2,1.6-0.3c63.3-9.9,124.6-22.7,183.7-38.5
			c-9.1,7.2-22.7,15.2-40.8,23.8c-0.5,0.2-0.9,0.4-1.3,0.7c-0.9,0.3-1.7,0.7-2.6,1.1c-23,11-39.2,20.9-48.8,29.9
			c-13.6,13.3-27.2,24-40.7,32.1c-1.3,1.1-2.6,2.1-4,3c-10.8,7.2-22.5,11.6-35.3,13.2c-11.4,1.8-20.2-1.5-26.3-9.8
			c-1-1.4-2-2.9-2.8-4.6c-0.3-0.6-0.5-1.1-0.8-1.8c-0.2-0.7-0.3-1.4-0.3-2.2c-1.6-10.4,0.3-19.8,5.7-28.3
			C859.3,1428.5,863.5,1422.4,868.8,1416.3z"/>
		<path class="st15" d="M907.6,975.6c-3.5-12.3-6.4-25-8.6-38c-3.9-22.3-5.9-45.6-5.9-69.8c0-53.2,8.8-107.9,26.4-164.3
			c0.7-5,1.1-11.4,1.1-19.1c0-10.1,0-16.5,0-19c0-0.7,0-1.1,0-1.2c0.3-13.5,2.6-24.7,7-33.4c0.8-1.5,1.6-3,2.4-4.3
			c0.7,6.3,1.3,15.6,1.6,28c0.5,11,2.1,19.9,4.6,26.9c2,3,4.3,5.8,6.9,8.3c5.8,5.8,13.1,10.7,22,14.8c7.7,3.6,19.5,7.5,35.3,11.6
			c4.3,1.3,8.5,2.4,12.7,3.5c7.2,1.8,14.4,3.1,21.6,3.8c0,0.2,0,0.4,0,0.5c-1.5-0.2-2.9-0.3-4.3-0.5c-3.6,24.1-5.4,39.3-5.4,45.8
			c0,31.6,9.8,70.7,29.4,117.2c2.2,2,4.7,7.4,7.5,16.2c0.5,1.2,1.1,2.4,1.8,3.8c-0.3,5.5-0.6,11.5-0.9,18c-0.2,4.7-0.5,9.4-0.8,14.3
			c-1.4,26.8-1.6,47.6-0.5,62.5c9,45.1,15.1,86.5,18.2,124.2c0,0.7,0.1,1.3,0.1,1.9c0.3,3.3,0.5,6.6,0.8,9.8
			c3,41.1,3.1,80.2,0.3,117.3c-0.7,4.2-0.7,10.3-0.1,18.5c0.5,6.9,1.4,15.2,2.8,24.9c3.1,18.1,2.2,32.2-2.4,42.3
			c-3.5,5.6-7.4,10.7-11.9,15.4c-6.5,6.7-14,12.5-22.6,17.2c-3.2,1.9-6.4,3.5-9.6,5c-3.7,1-7.4,1.9-11.2,2.8h-0.1
			c-3.1,1-6.3,1.7-9.4,2.3c-3.8,0.9-7.6,1.8-11.4,2.7c-1.3,0.1-2.5,0.1-3.8,0.1c-13.1-2.2-23.7-5.7-31.8-10.8
			c-10.4-6.8-15.4-15.5-14.9-26.3c0.1-0.4,0.1-0.8,0.1-1.2c2-23.9,2.1-55.2,0.3-94c-2.5-48.8-3.7-80.3-3.5-94.3
			c0.4-21.4-1.4-43.4-5.4-66c-3.8-20.1-9.7-41.5-17.8-64.1c-5.4-11.3-10.2-22.9-14.3-34.8C911.4,988.1,909.4,981.9,907.6,975.6z"/>
		<linearGradient id="SVGID_1_" gradientUnits="userSpaceOnUse" x1="1283.296" y1="674.7959" x2="917.0676" y2="717.9073">
			<stop  offset="0" style="stop-color:#A8DAEB"/>
			<stop  offset="0.6824" style="stop-color:#E5EAE3"/>
		</linearGradient>
		<path class="st16" d="M1034.5,724c0-0.2,0-0.4,0-0.5c-7.2-0.7-14.4-2-21.6-3.8c-4.1-1.1-8.3-2.2-12.7-3.5
			c-15.8-4.1-27.6-8-35.3-11.6c-8.9-4.1-16.2-9-22-14.8c5.2,4.4,11.2,8.4,18.2,11.9c8.1,3.8,20.6,8,37.4,12.7
			c26.2,8.8,53.7,11.7,82.4,8.6c13-1.6,25.7-4.2,38.1-7.9c-14.3,4.8-28.9,7.9-44,9.3C1061.2,725.6,1047.6,725.5,1034.5,724z"/>
		<path class="st17" d="M1300.2,1213c-2.4-14.2-5.3-27.5-8.6-40c2.7,6.3,4.5,12.4,5.5,18.5C1298.3,1198.1,1299.4,1205.3,1300.2,1213
			z"/>
		<path class="st18" d="M1243.7,1610.3c-1.2-4.1-2-8.4-2.3-12.9c-0.2-4.9-0.3-7.5-0.3-7.8c0-1.4,0-2.8,0-4
			c2.6,12.4,7.5,23.4,14.8,33.1c8.1,4,16.9,5,26.4,3.2c8.6-1.4,16.9-5.2,24.8-11.3c7.5-5.7,13.5-12.7,17.8-21
			c2.2-4.1,4.2-9,6.1-14.7c0.6,5.2,0.9,8.5,0.9,9.8c0,7.7-4.5,17-13.5,27.7c-12,14.4-27.4,21.6-46.1,21.6c-4.9,0-9.3-0.9-13.1-2.7
			c-6.8-3.3-11.8-9.6-14.9-18.9C1244.1,1611.7,1243.9,1611,1243.7,1610.3z M1068,1369.3c-2.4,0.7-4.7,1.3-7.1,1.9
			c1.7-1.8,3.1-3.6,4.3-5.5C1066.3,1366.7,1067.3,1367.9,1068,1369.3z M911.1,1486.2c-5.7,2.5-11.5,4.3-17.5,5.5
			c-5.6,1.3-11,1.4-16.4,0.5c-5,0-9.6-0.8-13.7-2.4c-8.1-3.4-12.1-9.3-12.1-17.8c0-1.6,0.1-3.2,0.3-4.9c0-0.1,0-0.3,0-0.4
			c0.9,1.7,1.8,3.2,2.8,4.6c6.1,8.3,14.8,11.6,26.3,9.8c12.7-1.6,24.5-6,35.3-13.2c1.4-0.9,2.8-1.9,4-3c13.5-8.1,27-18.8,40.7-32.1
			c9.5-9,25.8-18.9,48.8-29.9c0.8-0.4,1.7-0.7,2.6-1.1c-15.6,15.7-31.4,31.4-47.3,47.1c-12,12-25.4,22.1-40.1,30.2
			c-0.9,0.5-1.8,1-2.7,1.3C918.3,1482.8,914.7,1484.7,911.1,1486.2z M1013.3,1401.4c18.1-8.7,31.7-16.6,40.8-23.8c1-0.3,2-0.5,3-0.8
			c4.1-1.1,8.2-2.2,12.3-3.4c0.2,1.2,0.4,2.5,0.4,3.9c0.5,11.5-3.9,20.7-13.2,27.7c-7.9,6.1-16.6,10-26.1,11.6
			c-3.2,0.2-6.5-0.1-9.7-0.8c-4.5-0.7-6.8-3.4-7-8.1C1013.7,1405.6,1013.6,1403.5,1013.3,1401.4z"/>
		<path class="st19" d="M1241.1,1585.5c-0.1-0.4-0.2-0.9-0.3-1.3c-1.8-9.9-2.2-22.3-1.3-37.2c1.2-12.9,2.1-23.4,2.6-31.4
			c0.3-0.2,0.6-0.4,0.9-0.7c0.2-0.1,0.3-0.2,0.4-0.4c0.1-0.2,0.1-0.4,0.1-0.5c0-0.6,0.1-1.2,0.1-1.8c0-0.4-0.1-0.7-0.3-0.9
			c-0.2-0.3-0.6-0.5-0.9-0.5h-0.1c0.1-0.6,0.1-1.2,0.1-1.8c0.9-14.7,0.4-27.2-1.6-37.4c-0.8-5.7-1.2-11.1-1.1-16
			c4.2,5.4,9.3,10,15.5,13.6c0.1,0.1,0.3,0.2,0.4,0.3c8.6,4.8,18.1,7.4,28.6,7.5c10.4,0.4,20-1.6,28.8-5.9c2.8-1.3,5.4-2.8,7.8-4.4
			c2-1.4,3.8-2.9,5.5-4.4c2,6.5,3.9,14,5.8,22.4c6.5,28.7,8,51.2,4.6,67.3c-1.7,8.7-3.7,16.4-5.8,23c-1.9,5.7-3.9,10.6-6.1,14.7
			c-4.3,8.3-10.2,15.3-17.8,21c-7.9,6.1-16.2,9.9-24.8,11.3c-9.5,1.8-18.3,0.7-26.4-3.2C1248.6,1608.9,1243.7,1597.9,1241.1,1585.5z
			"/>
	</g>
</g>
</svg>
