<?xml version="1.0" encoding="utf-8"?>
<!-- Generator: Adobe Illustrator 25.0.1, SVG Export Plug-In . SVG Version: 6.00 Build 0)  -->
<svg version="1.1" xmlns="http://www.w3.org/2000/svg" xmlns:xlink="http://www.w3.org/1999/xlink" x="0px" y="0px"
	 viewBox="0 0 2400 1650" style="enable-background:new 0 0 2400 1650;" xml:space="preserve">
<style type="text/css">
	.st0{fill-rule:evenodd;clip-rule:evenodd;fill:#E9EDF8;}
	.st1{fill-rule:evenodd;clip-rule:evenodd;fill:#A6ACE0;}
	.st2{fill-rule:evenodd;clip-rule:evenodd;fill:#CED2F7;}
	.st3{fill-rule:evenodd;clip-rule:evenodd;fill:#FFFFFF;}
	.st4{fill-rule:evenodd;clip-rule:evenodd;fill:#362E95;}
	.st5{fill-rule:evenodd;clip-rule:evenodd;fill:#FFE548;}
	.st6{fill-rule:evenodd;clip-rule:evenodd;fill:#345BA7;}
	.st7{fill-rule:evenodd;clip-rule:evenodd;fill:#264376;}
	.st8{fill-rule:evenodd;clip-rule:evenodd;fill:#6ECC00;}
	.st9{fill-rule:evenodd;clip-rule:evenodd;fill:#549C00;}
	.st10{fill-rule:evenodd;clip-rule:evenodd;fill:#F8B504;}
	.st11{fill-rule:evenodd;clip-rule:evenodd;fill:url(#SVGID_1_);}
	.st12{fill-rule:evenodd;clip-rule:evenodd;fill:#333333;}
	.st13{fill-rule:evenodd;clip-rule:evenodd;}
	.st14{fill-rule:evenodd;clip-rule:evenodd;fill:#E63D5E;}
	.st15{fill-rule:evenodd;clip-rule:evenodd;fill:#BB355A;}
	.st16{fill-rule:evenodd;clip-rule:evenodd;fill:#FFB087;}
	.st17{fill-rule:evenodd;clip-rule:evenodd;fill:#F18D69;}
	.st18{fill-rule:evenodd;clip-rule:evenodd;fill:#003151;}
	.st19{fill-rule:evenodd;clip-rule:evenodd;fill:#00558C;}
	.st20{fill-rule:evenodd;clip-rule:evenodd;fill:#000066;}
	.st21{fill-rule:evenodd;clip-rule:evenodd;fill:#D8E0F5;}
	.st22{fill-rule:evenodd;clip-rule:evenodd;fill:#7B9DCD;}
	.st23{fill-rule:evenodd;clip-rule:evenodd;fill:#A9BFE1;}
	.st24{fill-rule:evenodd;clip-rule:evenodd;fill:#426CB0;}
	.st25{fill-rule:evenodd;clip-rule:evenodd;fill:#ED9870;}
	.st26{fill-rule:evenodd;clip-rule:evenodd;fill:#FF5A72;}
	.st27{fill-rule:evenodd;clip-rule:evenodd;fill:#F8F5FC;}
	.st28{fill-rule:evenodd;clip-rule:evenodd;fill:#FFEEE5;}
	.st29{fill-rule:evenodd;clip-rule:evenodd;fill:#CFBAB0;}
	.st30{fill-rule:evenodd;clip-rule:evenodd;fill:#FF6F61;}
</style>
<g id="Ñëîé_2">
</g>
<g id="Ñëîé_1">
	<g>
		<path class="st0" d="M1702.6,161l0.6-45.6l0.8-53.9h-0.1c0-1.1,0-2.2,0.1-3.2l0.1-5.4L498.1,175.2l-6.3,480.6
			c-5.6-2.4-11.3-4.5-17.2-6.5c5.8,8.8,11.5,17.7,16.9,26.8l-2.8,212.2c-10-6.2-20-11.1-29.9-14.6l9.6-727.7L1734.6,17.5
			c-0.1,7.4-0.2,14.8-0.3,22.1l-0.2,13.2l-18.7,1415.7h0.1c-0.1,12.7-0.3,24.5-0.5,35.5c-66.8-10.1-269.1-44.5-606.9-103.1
			c-183.7-31.9-334.5-57.9-452.4-78.1c7.2-2.1,12.4-6.5,15.6-13.1c1.6-3.1,2.6-6.6,3-10.5c0.1-0.9,0.3-2.1,0.4-3.5
			c64.5,11.1,139.6,24,225.1,38.7c0.2,0.2,0.4,0.4,0.7,0.7c17.9,5.7,41.2,9.8,70.1,12.3c3.3,0.3,6.4,0.6,9.5,0.8
			c40.4,7,82.8,14.3,127.3,22c321.8,55.8,514.5,88.5,578.1,98.1c0-1.7,0-3.5,0.1-5.3c0-0.6,0-1.2,0-1.9l0.6-42.1l1.6-121.2l1.2-92
			l1.4-102.5l0.8-65.1l3.8-283.1l1.7-124.4l1.7-127.7l0.5-36.9l1.7-133.5l0.5-34.6l0.8-55.2l0.6-44.4L1702.6,161z M488,953.3
			l-4.1,310.1c17.1,2.9,36.2,6.1,57.4,9.6c-5,4.9-7.5,11.7-7.6,20.3c0,0.7,0,1.3,0,2c-1.4-0.3-2.9-0.5-4.5-0.6
			c-5.4-0.3-10.1,1.1-13.9,4.2c-7.2-1.2-14.3-2.4-21.1-3.5c0-0.1,0.1-0.3,0.1-0.4c0.3-1.3,0.5-3.1,0.5-5.4c0.1-9.3-2.9-16.7-9-22.1
			c-5.4-5-12.2-7.5-20.3-7.5c-4.2,0-8,0.7-11.5,2l4.4-339.5C467.9,930.6,477.8,940.9,488,953.3z M590.6,1281.5
			c3.8,0.6,7.7,1.3,11.7,2c0.5,5.8,2.5,11.3,5.9,16.2c2.7,3.9,6.1,6.8,10.1,8.7c0.7,1.4,1.5,2.7,2.4,4.1c1.4,2,2.9,3.7,4.6,5.2
			c-12.4-2.1-24.4-4.2-36-6.2c0.3-0.5,0.6-1.1,0.9-1.7c1.6-3.1,2.6-6.6,3-10.5c0.2-1.3,0.3-3.1,0.4-5.4
			C593.7,1289.3,592.7,1285.2,590.6,1281.5z"/>
		<path class="st1" d="M1703.9,61.5l-1130.1,129v2.7l-75.7-18.1L1704,52.9l-0.1,5.4C1703.9,59.3,1703.9,60.4,1703.9,61.5z
			 M980,1348.4c38.2,3.4,58.9,5.2,62.3,5.5c12.4,0.6,21.7,0.5,27.8-0.5c10.5-1.2,17.1-6.4,19.7-15.5c21,3,33.1,4.7,36.4,5
			c14.2,0.6,26.1-1.4,35.5-5.9c0.6-1.4,1.1-2.7,1.7-4.1c2.9,0.5,5.9,1.1,8.9,1.6c72.1,12.7,137,24,194.5,33.9
			c13.9,15,30.4,27.3,49.5,37c32.6,17,67.5,22.1,104.7,15.5c8.4-1.8,20.8-6.7,37-14.6c10.9,3.3,22.8,3.6,35.5,0.9
			c0.8-0.2,1.7-0.4,2.5-0.7c41.7,6.5,71.7,10.8,90,12.9l-0.6,42.1c0,0.6,0,1.3,0,1.9c0,1.8,0,3.5-0.1,5.3
			c-63.6-9.6-256.3-42.3-578.1-98.1C1062.9,1362.7,1020.4,1355.4,980,1348.4z M875.5,1281.8c-4,3-6.1,6.9-6.4,11.7
			c5.9,7.9,14.5,11,25.7,9.3c0.3-0.1,0.6-0.1,0.9-0.2c-2.8,3.9-4.4,8.1-4.7,12.5c-0.4,6.7,2.5,13.1,8.7,19.3
			c-85.5-14.8-160.5-27.7-225.1-38.7c0-0.6,0-1.3,0.1-2c0.1-5-0.8-9.4-2.5-13.2c16.3-0.7,30.8-2,43.6-4.1c2.8-0.6,5.3-1.2,7.5-1.7
			c11.9-2.9,18.8-5.8,20.5-8.6l0.1-1.7c0-3.3-3.8-6.2-11.5-8.8c28.7,5.3,60.3,11,94.8,17.2c-2.5,1.6-5.7,3.3-9.6,5.1
			c-6.9,3.5-9.4,8.6-7.5,15.3c4.9,4.1,10.6,6,17.2,5.7c6-0.1,11.8-2,17.5-5.6c5.3-3.6,9.3-8.2,11.9-13.7c0.2-0.5,0.5-1,0.7-1.5
			C863.3,1279.6,869.4,1280.7,875.5,1281.8z M595.7,1136.5c-2.3-1.5-4.7-2.7-7.4-3.5c4.1-0.1,8.3-0.2,12.7-0.2
			c18.2,0,33.8,1.2,46.9,3.5c12.5,2.3,18.8,5,18.8,8.1v0.6c-0.7,2.3-5.4,4.4-14,6.3c-1.9,0.4-3.6,0.8-5.1,1.2
			c-11.4,2-24.8,3.1-40,3.4c-0.1-1-0.3-2-0.5-3c10.2-0.2,18.8-1.2,26-2.8c2.4-0.4,4.4-0.8,6-1.1c5-1.2,7.7-2.8,8.1-4.7
			c-0.4-1.9-5.1-3.9-14-5.9c-8.3-1.5-19.1-2.3-32.2-2.3C599.2,1136.4,597.4,1136.4,595.7,1136.5z M549.1,1151.9
			c-1.6-0.4-3-0.8-4.3-1.2c-1.5-2.8-3.5-5.3-5.9-7.5c-0.5-0.4-1-0.8-1.5-1.2c2.7-2.2,8.5-4.1,17.5-5.7c2.8-0.5,5.7-1,8.8-1.4
			c-2.1,1.1-4.2,2.4-6.1,4.1C553.4,1142.5,550.6,1146.8,549.1,1151.9z M483.8,1263.4l37.9-12.6c0.4,0.7,0.9,1.4,1.4,2
			c3.2,4.6,7.4,7.9,12.5,9.7c-1.1,0.9-1.7,1.9-1.7,2.9v1.1c0.9,1.6,4,3.2,9.3,4.7c-0.7,0.6-1.3,1.1-2,1.7
			C520.1,1269.5,500.9,1266.3,483.8,1263.4z M602.3,1283.4c-3.9-0.7-7.8-1.3-11.7-2c-0.8-1.5-1.7-2.9-2.9-4.2
			c4.6,0.7,9.4,1.3,14.4,1.7c0,0.4,0,0.8,0,1.1C602.2,1281.2,602.2,1282.4,602.3,1283.4z"/>
		<path class="st2" d="M595.1,747.3c-26.3-42.9-60.7-73.4-103.3-91.6l6.3-480.6l75.7,18.1l-0.5,31l1129.9-108.9l-0.6,45.6L573,249.5
			l-0.3,25.3l1129.3-76.1l-0.6,44.4L572.1,312.2l-0.5,44.7l1129-58.7l-0.5,34.6L1112,354.2l-3.2,236.2c0,1.6-0.2,3.1-0.6,4.5
			c3,1.6,5.7,3.8,8.3,6.3c7.3,7.4,10.9,16.3,10.8,26.6c-0.2,10.2-4.1,19-11.6,26.3c-7.3,7.3-16.1,11-26.3,11
			c-10.3,0-19.2-3.7-26.5-11c-7.2-7.3-10.7-16.1-10.5-26.3c0.1-10.3,3.9-19.2,11.3-26.6c2.7-2.6,5.6-4.8,8.7-6.5
			c-0.3-1.4-0.5-2.8-0.5-4.4l3.2-234.9L600,372.7L595.1,747.3z M592,985.4l-0.1,11.1c-12-17.9-24.3-34.2-37-49
			c-22.3-26-44.3-45.7-66.1-59.2l2.8-212.2c51.7,86.2,84.5,184.2,98.5,293.8C590.7,974.9,591.3,980.1,592,985.4z M483.8,1263.4
			l4.1-310.1c14.8,18.2,30.1,40.8,46,68c11.6,20.1,26.2,46.3,43.8,78.6c-9.3,2.4-14,5.1-14,8.1v0.8l2.5,25.1
			c-0.9,0.3-1.7,0.7-2.6,1.1c-3.1,0.4-6,0.8-8.8,1.4c-8.9,1.6-14.7,3.5-17.5,5.7c-5.3-4.1-11.8-6.2-19.3-6.2c-8,0-14.9,2.5-20.6,7.4
			c-6.3,5.3-9.5,12.5-9.6,21.7c-0.1,7.1,1.9,13.6,6,19.4c5.4,7.7,13.3,11.6,23.6,11.6c9.6,0,17-2.6,22.1-7.7l1.7,16.7
			c-5.5,0.9-10.4,3.2-14.6,6.8c-6.3,5.3-9.5,12.5-9.6,21.7c-0.1,6.4,1.5,12.2,4.7,17.5L483.8,1263.4z M553.3,1071.1
			c0.1-9.3-2.9-16.7-9-22.1c-5.5-4.9-12.4-7.4-20.6-7.4c-8,0-14.9,2.4-20.8,7.2c-6.3,5.4-9.5,12.6-9.6,21.7
			c-0.1,7.1,2.1,13.7,6.5,19.7c5.5,7.6,13.2,11.4,23.2,11.4c12.9,0,21.9-4.9,26.9-14.7c1.5-3.1,2.6-6.6,3.2-10.4
			C553.2,1075,553.3,1073.2,553.3,1071.1z"/>
		<path class="st3" d="M1698.5,466.4c-11.1,7.7-21.8,17.5-32,29.4c-1.7,2-3.2,4-4.7,5.9c-0.3-0.5-0.6-1-0.8-1.4
			c-6.1-6.5-13-12.4-20.7-17.5c1.2,0.1,2.5,0.2,3.7,0.2c-1.5-4.2-8.1-11.8-19.7-22.7c-11.7-11.2-30.1-12-55.1-2.4
			c-0.6,0.2-1.1,0.4-1.7,0.7c-5.5-0.3-11-0.4-16.6-0.1c-21.6,0.9-40.5,6.4-56.7,16.4c-18.1,11.2-31.1,26.7-39.3,46.3
			c-15.5,20.7-22.4,44.2-20.6,70.7c1.7,22.2,9.2,39.9,22.6,53.3c2.4,9.4,7.4,17.7,14.7,25c0.5,0.4,0.9,0.9,1.4,1.4
			c5.1,13.2,12.6,25.7,22.5,37.5c14.4,17.3,30.8,29.2,49.2,36c23.8-0.6,30.4,7.9,19.9,25.4c-4,1.5-7.6,3.7-10.7,6.5
			c-3,2.1-5.9,4.7-8.7,7.7c-4,3.9-8.6,8-13.7,12.3l-15.2,4.1c-10,2.8-18.3,8.2-24.8,16.1l-15.2-55.7c-1.4-5.1-4.5-7.3-9.2-6.5
			l-244.2,42c-4.6,0.8-6.2,3.8-4.8,8.9l23.2,84.9c-10.5-1.9-21.4-0.8-32.9,3.2c-20.1,7.5-34,21.3-41.8,41.4
			c-14.1,36.4-36.5,84.7-67.1,144.9c-20,39.1-36.2,71.4-48.7,96.9c-1.6-8.3-4-17.2-7.2-26.8c-1.6-4.8-4.2-11.9-7.8-21.4
			c-0.3-0.8-0.6-1.6-0.9-2.4l-0.8-2.6c-0.6-1.4-1.2-2.8-1.7-4.1c-0.2-0.4-0.4-0.8-0.6-1.2c8.1-9.2,14.5-19.7,19.3-31.3
			c6.1-14.9,13.4-24.6,21.8-28.9c17-9.9,27.6-25.7,31.6-47.4c3.7-19.8,1.5-38.9-6.8-57.5c-5.5-10.4-10.8-13.3-15.8-8.7
			c0.4,2.4,1.8,9.4,4.2,21.1c1.9,9.1,3.1,16.6,3.6,22.4c1.1,17.7-3.7,31.2-14.4,40.8c-10.9,6.2-20.6,14.3-28.9,24.4
			c-8.2,9.5-14.8,20.4-19.9,32.5c-1.3,4.7-4.4,7-9.2,6.9c-3.8-0.1-7.8-1.4-12-3.9c-35.2-18.3-77.4-28.3-126.5-30.2
			c-16.1-0.4-30.6-3.2-43.8-8.3c-14.8-5.6-26.9-13.9-36.3-25c-2.1-21.3-9.7-39.7-22.7-55.2c-2.7,2.1-6.2,8.9-10.5,20.3
			c-0.6,1.7-1.3,3.3-2.1,4.7c-0.3,0.6-0.7,1.1-1.2,1.5c-8.6,9.3-17.6,9.8-26.8,1.5c-2.3-2.2-4.7-4.9-7.2-8.1c-3.6-4.6-6-7.1-7.1-7.4
			c-1.8-0.4-2.8,2.5-2.9,8.7c3.5,6,4.8,12.5,3.8,19.6c-0.8,4.8-3.1,11.2-6.8,19.1c-4.3,9.2-7,15.6-8.1,19.3
			c-1.3,4.8-1.7,9.4-1.1,13.8h-0.3c0.2,1,0.4,2,0.6,2.9c0.2,1,0.4,2,0.6,2.9l0.1,0.3v0.1c5.1,5.7,14.2,9.9,27.4,12.6
			c14.9,2.9,24.7,6.1,29.3,9.5c0.6,1.1,1.2,2.3,1.8,3.5l0.1,0.6c0.2,0.3,0.4,0.6,0.6,0.9c2.4,6.1,4.4,13.4,6,22
			c1.1,6.4,2.7,16,4.7,28.9c4.3,22.9,13.8,38.6,28.6,47.1c-2,5.6-7.4,12.2-16.2,19.9c-9.9,8.6-16.3,15.1-19,19.4
			c-3.9-0.8-7.8-0.2-11.6,1.8c-3.4,1.8-6,4.3-7.8,7.5c-1.6,3.4-1.9,6.5-0.8,9.2c1.5,3.1,4.6,5.3,9.3,6.5c10.2,3.2,21.4-0.8,33.4-12
			c8-7.6,12.9-12.1,14.6-13.4c5.5-4.2,10.9-6.8,16.1-7.8l1.2-0.1l7.1,35.2c0.4,2.5,0.8,4.9,1.1,7.1c-0.7,1.6-2.7,3.4-5.9,5.4
			c-34.5-6.2-66.1-12-94.8-17.2c-4.2-1.4-9.7-2.8-16.3-4c-0.5-0.1-1-0.2-1.5-0.2l17.5-141.4v-1.5c0.1-1.5-0.8-2.9-2.6-4.2h-0.2
			c-3.6-2.6-10.8-4.9-21.6-6.9c-1.5-0.3-3.1-0.5-4.7-0.8c1.8-9.1,2.2-20.1,1.3-33c-0.7-10.4-3.2-27.7-7.4-51.8
			c-3.3-20.2-4.7-33.6-4.2-40.3c1.8-32.5,6.8-59,14.9-79.6c12.2-31.4,34-59,65.1-82.9c-60.3,11.1-100.5,44.2-120.7,99.3
			c-0.8,2.2-1.5,4.4-2.3,6.7c-3.8-27.2-9.1-52.6-15.8-76.2c-10-35.2-22.9-65.8-38.9-91.9l4.9-374.6l475.1-17.2l-3.2,234.9
			c0,1.5,0.1,3,0.5,4.4c-3.1,1.7-6,3.8-8.7,6.5c-7.4,7.4-11.2,16.3-11.3,26.6c-0.2,10.2,3.3,19,10.5,26.3c7.3,7.3,16.2,11,26.5,11
			c10.2,0,19-3.7,26.3-11c7.5-7.3,11.4-16.1,11.6-26.3c0.1-10.3-3.5-19.2-10.8-26.6c-2.6-2.6-5.3-4.7-8.3-6.3
			c0.4-1.4,0.6-2.9,0.6-4.5l3.2-236.2l588.3-21.4L1698.5,466.4z M1694.8,755.4c-2.3-0.7-5-1.5-7.9-2.3
			c-19.4-7.6-31.4-19.5-36.3-35.5c-0.7-18.9-1.6-33-2.7-42.3c10.5-1.6,18.5-3.2,23.8-4.7c9.1-2.4,12.3-7.9,9.6-16.4
			c-1.3-8.2-2.1-17.8-2.5-28.9c4.8,1.9,10.7,3.8,17.6,5.7L1694.8,755.4z M1666.7,1146.2c-7-19.2-7.7-35.9-2.1-50.1
			c8,2.7,16.5,5.3,25.6,7.5l-1.4,102.5C1684.8,1183.5,1677.4,1163.6,1666.7,1146.2z M1596.1,1406.4c30.2-8.5,54.1-26,71.5-52.6
			c9.3-14.2,15.4-29.7,18.4-46.5c0.6-3.1,1.1-6.2,1.7-9.3l-1.6,121.2C1667.8,1417.3,1637.8,1413,1596.1,1406.4z M1734.1,52.9h326.2
			l-18.7,1415.7h-326.1h-0.1L1734.1,52.9z M1480.8,836.2c-0.1,0.4-0.2,0.7-0.4,1.1c-2.6,5.8-6.4,23.4-11.3,52.8
			c-15.2,13-24.8,27.8-28.7,44.2c-3,13.8-0.9,25.3,6.4,34.8l-87.8,15c-0.3-0.9-0.6-1.7-0.9-2.4c-4.3-11.5-11.3-18.1-21.1-19.6
			c0.6,4.5,2,11.5,4.2,20.9c0.4,1.3,0.7,2.6,1,3.9l-5,0.8c-1.6-3.1-3.4-6.4-5.3-10.2c-5.7-10-11.4-18-17-23.8
			c-6.8,5.2-6.9,13.7-0.3,25.6c2.3,4.1,4.2,7.9,5.7,11.3l-7.9,1.4c-1.5-2.3-3.1-4.9-4.9-7.7c-6.1-10.3-13.1-16.9-21.1-19.6
			c0.2,7.8,3.3,17.7,9.2,29.6c0.1,0.1,0.1,0.3,0.2,0.5l-1,0.2c-4.1,0.7-6.8-1.3-8-6l-48-175c-1.3-4.7,0.1-7.4,4.2-8.1l212.9-36.6
			c4.1-0.7,6.8,1.3,8.1,6L1480.8,836.2z M1457,985.4c-1.6-2.2-3.2-4.4-4.9-6.6l4.1-0.7c0.6,0.4,1.2,0.9,1.9,1.4L1457,985.4z
			 M1267.3,1151.6c7.7,15.7,17.3,40.8,28.6,75.1c7.9,23.7,14.9,43.1,21.1,58.4c2.6,6.3,5.2,11.8,7.7,16.4c3.8,6.9,7.5,13.6,11,20
			c1.8,3.3,3.5,6.5,5,9.6c7.4,13.8,16.2,26.2,26.3,37.2c-57.6-9.9-122.4-21.2-194.5-33.9c-3-0.5-5.9-1-8.9-1.6
			c3.6-9.8,5.5-20.2,5.7-31.4c0.4-14.6-2.4-25.3-8.3-31.9c2.5-4.2,4.7-8.6,6.5-13.2c12-14.2,28.4-31.8,49-52.8
			c0.9-0.9,1.8-1.8,2.7-2.7C1247.5,1172.3,1263.5,1155.9,1267.3,1151.6z M1030.1,1221c-0.4,0.9-0.8,1.7-1.1,2.6
			c-8.3,7-20.2,18.6-35.5,34.6c-7.9,0.9-15.3,3.8-22.3,8.7c-6.8,4.2-12.5,9.8-17.2,16.9c-4.6,0.9-8.6,1.8-11.9,2.7
			c-7-2.4-14.5-2.4-22.4,0c-1.7,0.5-3.3,1-4.9,1.7c0.4-1,0.7-2.1,1-3.2c9-6.8,15.7-17.6,20-32.3c4.1-16.9,7.9-29.2,11.3-37
			c8.3-2.3,21.2-8.5,38.5-18.5c0.3,0.1,0.7,0.3,1.1,0.5l10.4,4.5c1.1,0.4,2.2,0.9,3.3,1.5v-0.2
			C1011.3,1208.6,1021.2,1214.5,1030.1,1221z M591.8,996.4l0.1-11.1c0.5,4.5,1.1,9.1,1.7,13.8C593.1,998.3,592.5,997.4,591.8,996.4z
			 M898,1194.4c1.1,21.7,2.1,36.2,2.9,43.5c0.5,17.2-3.3,30.7-11.3,40.8c-5-1.1-9.5-0.2-13.5,2.7c-0.2,0.1-0.4,0.3-0.5,0.5
			c-6.2-1.1-12.2-2.2-18.2-3.3c2.2-5.4,2.7-11,1.3-16.7c-1.9-6.1-2.8-16-2.7-29.8c0-1.8,0-3.6,0-5.3c-0.1-8.3-1.3-16.3-3.6-24.1
			c0.2-0.2,0.4-0.4,0.5-0.5c0.4-0.5,1.9-2,4.4-4.5c2.7-2.6,8.2-3.9,16.4-3.8L898,1194.4z"/>
		<path class="st4" d="M732.5,1255.8c7.7,2.6,11.5,5.5,11.5,8.8l-0.1,1.7c-1.7,2.8-8.5,5.7-20.5,8.6c-2.2,0.5-4.7,1.1-7.5,1.7
			c-12.7,2-27.2,3.4-43.6,4.1c-1.5-3.4-3.7-6.4-6.5-8.9c-1.3-1.2-2.7-2.2-4.2-3.1c0.4-0.2,0.8-0.3,1.1-0.5l29.8-1.8
			c0.7-0.1,1.4-0.2,2-0.3c2-0.5,3.8-1,5.3-1.5c8.4-1.9,13.1-3.9,14.1-5.9v-0.8l0.8-6.2c0.5,0.1,1,0.1,1.5,0.2
			C722.8,1253.1,728.2,1254.4,732.5,1255.8z M602.2,1279c-5-0.5-9.8-1.1-14.4-1.7c-0.3-0.3-0.6-0.6-0.8-0.9
			c3.9,0.1,7.9,0.2,12.1,0.2c1.1,0,2.3,0,3.4,0C602.4,1277.3,602.3,1278.2,602.2,1279z"/>
		<path class="st5" d="M696.8,1114c1.2-0.3,2.3-0.5,3.2-0.8c3.9-1,5.9-2.8,6-5.3c0-1.3-1.7-2.5-5-3.7c0.7-2.3,1.4-4.8,1.9-7.4
			c1.6,0.2,3.2,0.5,4.7,0.8c10.8,2,18,4.3,21.6,6.9h0.2c1.8,1.3,2.7,2.7,2.6,4.2v1.5c-1.5,2.5-7.4,5-17.8,7.4c-2,0.5-4.3,1-6.8,1.5
			c-0.7,0.1-1.4,0.2-2,0.3l-14.3,1.7c-12.7,1.2-27.1,1.8-43.1,1.8c-9.4,0-18.2-0.2-26.6-0.8c1.4-1.1,2.7-2.4,3.8-3.9
			c6.7,0.6,14.1,0.9,22.1,0.9c16.9-0.5,28.7-1.3,35.7-2.3C688.7,1115.9,693.2,1114.9,696.8,1114L696.8,1114z M581.2,1116.8
			c-10.7-2.4-16.5-5.1-17.5-8v-0.8c0-2.9,4.7-5.6,14-8.1c0.5,0.8,0.9,1.7,1.4,2.5c-0.2,1.1-0.3,2.3-0.3,3.5
			C578.7,1110.1,579.5,1113.7,581.2,1116.8z"/>
		<path class="st6" d="M555.4,1265.9c-2.1-0.6-3.9-1.1-5.2-1.7c11.3-0.8,19.1-5.6,23.5-14.4c1.6-3.1,2.6-6.6,3-10.5
			c0.3-1.4,0.4-3.2,0.4-5.4c0.1-9.3-2.9-16.7-9-22.1c-5.6-4.9-12.5-7.4-20.8-7.4c-2.1,0-4.1,0.2-6,0.5l-1.7-16.7
			c1.9-1.9,3.5-4.2,4.8-6.8c1.6-3.1,2.6-6.6,3-10.5c0.3-1.3,0.5-3.1,0.5-5.4c0.1-5.5-1-10.4-3.1-14.6c1.3,0.4,2.7,0.8,4.3,1.2
			c-0.8,2.7-1.2,5.6-1.2,8.7c-0.1,6.7,2,13.1,6.2,19.1c5.5,7.9,13.4,11.9,23.6,11.9c13.2,0,22.2-4.9,26.9-14.6
			c1.5-3.1,2.5-6.6,3-10.5c0.2-1.3,0.3-3.1,0.3-5.4c0-1.8-0.1-3.5-0.3-5.2c15.2-0.2,28.6-1.4,40-3.4c1.5-0.4,3.2-0.8,5.1-1.2
			c8.6-1.9,13.3-4,14-6.3l-13.8,113.2l-0.1,0.4c-5.5-4.5-12.3-6.8-20.4-6.8h-0.1c0.1-0.6,0.2-0.8,0.2-0.6c0.1-6.7-2.1-12-6.5-15.9
			c-4-3.6-9-5.4-14.9-5.4c-5.8,0-10.7,1.8-14.7,5.4c-4.6,3.9-7,9.2-7.1,15.9c0,4.5,1.5,8.9,4.5,13.1c1.7,2.3,3.6,4.2,5.9,5.6
			c-0.2,0-0.4,0-0.6,0c-7.8,0-15-0.2-21.7-0.7c-4.1-2.1-8.7-3.3-13.7-3.7C560.8,1265.3,558,1265.4,555.4,1265.9z"/>
		<path class="st7" d="M701.1,1104.3c3.3,1.2,5,2.4,5,3.7c-0.1,2.5-2.1,4.3-6,5.3c-1,0.2-2.1,0.5-3.2,0.8
			C698.5,1111.2,699.9,1107.9,701.1,1104.3z M607.1,1152.9c-1.3-5.6-4-10.2-8.2-13.9c-1-0.9-2.1-1.7-3.2-2.5
			c1.7-0.1,3.5-0.2,5.3-0.2c13.1,0,23.9,0.8,32.2,2.3c8.9,2,13.6,4,14,5.9c-0.4,1.9-3.1,3.5-8.1,4.7c-1.6,0.3-3.6,0.7-6,1.1
			C626,1151.7,617.3,1152.7,607.1,1152.9z"/>
		<path class="st8" d="M488.8,888.3c21.7,13.5,43.8,33.2,66.1,59.2c12.7,14.8,25,31.1,37,49c0.6,0.9,1.2,1.8,1.8,2.8
			c2.6,21.4,5.3,45.4,8.1,71.9c0.8,4.9,1.8,9.4,2.9,13.4c-6.9,0-12.8,1.8-17.7,5.4c-4.5,3.2-7.1,7.4-8,12.5
			c-0.4-0.8-0.9-1.7-1.4-2.5c-17.6-32.3-32.2-58.5-43.8-78.6c-15.8-27.2-31.1-49.8-46-68c-10.1-12.4-20-22.7-29.7-30.9
			c-0.6-0.5-1.2-1.1-1.8-1.6c-32.9-27.3-67.5-35-103.7-23c-1.4,0.5-4.4,1.8-8.9,3.8c-1.1,0.5-2.5,0.3-4.2-0.6v-3.6
			c38.8-30.3,78.5-38.2,119.2-23.7C468.8,877.2,478.8,882.1,488.8,888.3z M672.3,1280.6c1.7,3.8,2.5,8.3,2.5,13.2
			c0,0.7-0.1,1.3-0.1,2c-0.1,1.4-0.2,2.5-0.4,3.5c-0.4,3.9-1.4,7.4-3,10.5c-3.2,6.6-8.4,11-15.6,13.1c-3.3,1-7.1,1.5-11.4,1.5
			c-7.7,0-14-2.2-19-6.7c-1.7-1.5-3.2-3.2-4.6-5.2c-0.9-1.3-1.7-2.7-2.4-4.1c-4-1.9-7.3-4.8-10.1-8.7c-3.5-5-5.5-10.4-5.9-16.2
			c-0.1-1.1-0.1-2.2-0.1-3.3c0-0.4,0-0.7,0-1.1c0.1-0.8,0.1-1.7,0.2-2.5c0.2-1.7,0.5-3.3,1-4.9c2.2,0.8,4.6,1.1,7.2,1.1
			c9.5,0,16.1-3.9,19.7-11.6c1-4.9,1.7-8,2-9.3h0.1c8.1,0,14.9,2.3,20.4,6.8c0.1,0.1,0.3,0.2,0.4,0.3c2.9,2.5,5,5.4,6.5,8.7
			c0.6,0.3,1.2,0.6,1.7,1c1.5,0.9,2.9,1.9,4.2,3.1C668.6,1274.2,670.8,1277.2,672.3,1280.6z M625.4,1118.2c0.7-0.9,1.4-1.9,2-3
			c0.7-2.4,1.2-4.4,1.7-5.9c6.7-0.3,12.2-2,16.5-5.1c-5.2-1.8-9.5-5.1-13-9.9c-4.4-6.1-6.6-12.6-6.5-19.6c0.1-9,3.3-16.2,9.6-21.7
			c5.7-4.8,12.6-7.2,20.6-7.2c0.3,0,0.7,0,1.1,0c0.5-47.4-2-90.9-7.5-130.5c0.7-2.3,1.5-4.5,2.3-6.7c20.2-55.1,60.4-88.2,120.7-99.3
			c-31.2,23.9-52.9,51.5-65.1,82.9c-8.1,20.6-13.1,47.1-14.9,79.6c-0.5,6.7,0.9,20.2,4.2,40.3c4.2,24.1,6.7,41.3,7.4,51.8
			c0.9,12.8,0.5,23.8-1.3,33c-0.5,2.6-1.1,5.1-1.9,7.4c-1.1,3.6-2.6,6.8-4.3,9.7l-0.1,0.1c-3.5,0.8-8.1,1.7-13.5,2.8
			c-6.9,1-18.8,1.8-35.7,2.3C639.5,1119.1,632.1,1118.8,625.4,1118.2z M553.3,1071.1c0,2-0.1,3.8-0.3,5.4c-0.6,3.8-1.7,7.3-3.2,10.4
			c-5,9.8-14,14.7-26.9,14.7c-9.9,0-17.7-3.8-23.2-11.4c-4.4-6-6.6-12.6-6.5-19.7c0.1-9,3.3-16.2,9.6-21.7
			c5.8-4.8,12.7-7.2,20.8-7.2c8.2,0,15.1,2.5,20.6,7.4C550.4,1054.4,553.4,1061.8,553.3,1071.1z M595.7,1136.5
			c1.1,0.7,2.2,1.6,3.2,2.5c4.2,3.7,6.9,8.4,8.2,13.9c0.2,1,0.4,2,0.5,3c0.2,1.7,0.3,3.4,0.3,5.2c0,2.3-0.1,4.1-0.3,5.4
			c-0.5,3.9-1.5,7.4-3,10.5c-4.7,9.7-13.7,14.6-26.9,14.6c-10.2,0-18.1-4-23.6-11.9c-4.2-6-6.3-12.4-6.2-19.1c0-3.1,0.4-6.1,1.2-8.7
			c1.5-5.1,4.3-9.5,8.4-12.9c1.9-1.6,3.9-3,6.1-4.1c0.8-0.4,1.7-0.8,2.6-1.1c3.7-1.5,7.7-2.2,12.1-2.2c3.6,0,6.9,0.5,10,1.4
			C591,1133.9,593.4,1135,595.7,1136.5z M577.6,1269.2c2.5,1.3,4.8,2.9,6.9,4.7c0.9,0.8,1.7,1.6,2.5,2.4c0.3,0.3,0.6,0.6,0.8,0.9
			c1.1,1.3,2.1,2.7,2.9,4.2c2.1,3.7,3.1,7.8,3,12.3c-0.1,2.3-0.2,4.1-0.4,5.4c-0.4,3.9-1.4,7.4-3,10.5c-0.3,0.6-0.6,1.2-0.9,1.7
			c-4.9,8.6-13.6,12.9-26,12.9c-5.1,0-9.5-1-13.5-2.9c0.2-1.5,0.3-3.2,0.4-4.9c0-4.7-1.2-8.8-3.5-12.3c-0.9-1.3-1.9-2.4-3-3.5
			c-3-2.7-6.3-4.5-10.1-5.4c0-0.7,0-1.3,0-2c0.1-8.6,2.6-15.4,7.6-20.3c0.6-0.6,1.3-1.2,2-1.7l0.1-0.1c3.5-2.8,7.5-4.6,12.1-5.3
			c2.6-0.5,5.5-0.6,8.5-0.4C568.9,1265.9,573.4,1267.1,577.6,1269.2z M553,1405.3c0,0.3,0,0.6-0.1,0.9c-0.5,3.8-1.5,7.3-2.9,10.4
			c-4.7,9.8-13.6,14.7-26.6,14.7c-10,0-17.9-3.9-23.6-11.6c-4.5-6.1-6.7-12.6-6.6-19.6c0.1-9,3.3-16.2,9.6-21.7
			c5.8-4.8,12.7-7.2,20.8-7.2c8.2,0,15.1,2.5,20.6,7.4c2.5,2.2,4.5,4.7,5.9,7.6c-0.6,2-0.9,4.2-1,6.5
			C549,1397.3,550.3,1401.5,553,1405.3z M546.9,1527.7c0.3,1.8,0.4,3.8,0.4,5.8c-0.1,2-0.2,3.8-0.5,5.4c-0.5,3.8-1.6,7.3-3.2,10.4
			c-4.9,9.8-13.8,14.7-26.8,14.7c-9.8,0-17.6-3.9-23.2-11.6c-4.4-6.1-6.6-12.6-6.5-19.6c0.1-9,3.3-16.2,9.6-21.7
			c5.7-4.8,12.6-7.2,20.6-7.2c6.7,0,12.5,1.6,17.5,4.9c0,4.8,1.4,9,4.1,12.6C541,1524.3,543.6,1526.3,546.9,1527.7z M544.8,1150.7
			c2.1,4.2,3.1,9,3.1,14.6c0,2.3-0.2,4.1-0.5,5.4c-0.4,3.9-1.4,7.4-3,10.5c-1.3,2.7-2.9,4.9-4.8,6.8c-5.1,5.2-12.5,7.7-22.1,7.7
			c-10.3,0-18.2-3.9-23.6-11.6c-4.1-5.8-6.1-12.3-6-19.4c0.1-9.1,3.3-16.4,9.6-21.7c5.7-4.9,12.6-7.4,20.6-7.4
			c7.5,0,13.9,2.1,19.3,6.2c0.5,0.4,1,0.8,1.5,1.2C541.4,1145.4,543.4,1147.9,544.8,1150.7z M494.1,1295.4
			c-0.4,3.7-1.3,7.1-2.6,10.2c-4.8,9.7-13.7,14.6-26.8,14.6c-10.3,0-18.2-4.1-23.6-12.2c-4-5.9-6-12.2-5.9-18.8
			c0.1-9.2,3.3-16.6,9.6-22c2.7-2.3,5.7-4.1,9-5.3c3.5-1.3,7.3-2,11.5-2c8.1,0,14.9,2.5,20.3,7.5c6.1,5.4,9.1,12.8,9,22.1
			c0,2.3-0.1,4.1-0.5,5.4C494.2,1295.2,494.2,1295.3,494.1,1295.4z"/>
		<path class="st9" d="M621.6,1122.2c-4.4,3.5-10.1,5.3-17.4,5.3c-10.2,0-17.4-2.8-21.5-8.4c-0.5-0.7-1-1.4-1.4-2.2
			c-1.7-3.1-2.6-6.7-2.5-10.9c0-1.2,0.1-2.3,0.3-3.5c0.9-5.1,3.5-9.3,8-12.5c4.9-3.6,10.8-5.4,17.7-5.4c-1.1-4-2.1-8.4-2.9-13.4
			c-2.8-26.6-5.5-50.5-8.1-71.9c-0.6-4.7-1.1-9.3-1.7-13.8c-0.7-5.3-1.3-10.5-2-15.5c-14-109.7-46.8-207.6-98.5-293.8
			c-5.4-9.1-11.1-18-16.9-26.8c5.9,2,11.6,4.1,17.2,6.5c42.6,18.1,77,48.7,103.3,91.6c16,26.1,28.9,56.7,38.9,91.9
			c6.7,23.6,12,49,15.8,76.2c5.5,39.6,8,83.1,7.5,130.5c-0.4,0-0.7,0-1.1,0c-8,0-14.9,2.4-20.6,7.2c-6.3,5.4-9.5,12.6-9.6,21.7
			c-0.1,6.9,2.1,13.4,6.5,19.6c3.5,4.8,7.8,8.1,13,9.9c-4.3,3.1-9.8,4.8-16.5,5.1c-0.4,1.5-1,3.4-1.7,5.9c-0.6,1.1-1.2,2.1-2,3
			C624.3,1119.7,623,1121,621.6,1122.2z M632.4,1251.8c-0.3,1.3-1,4.4-2,9.3c-3.6,7.7-10.2,11.6-19.7,11.6c-2.6,0-5-0.4-7.2-1.1
			c-1.3-0.4-2.5-1-3.6-1.7c-2.2-1.4-4.2-3.2-5.9-5.6c-3-4.2-4.5-8.6-4.5-13.1c0.1-6.7,2.5-12,7.1-15.9c4-3.6,8.9-5.4,14.7-5.4
			c5.9,0,10.9,1.8,14.9,5.4c4.4,3.9,6.6,9.2,6.5,15.9C632.6,1251,632.5,1251.2,632.4,1251.8z M550.2,1264.2
			c-1.2,0.1-2.4,0.1-3.6,0.1c-4,0-7.7-0.6-11-1.7c-5.1-1.8-9.2-5.1-12.5-9.7c-0.5-0.7-0.9-1.4-1.4-2c-3.2-5.3-4.8-11.1-4.7-17.5
			c0.1-9.1,3.3-16.4,9.6-21.7c4.2-3.6,9.1-5.9,14.6-6.8c1.9-0.4,3.9-0.5,6-0.5c8.2,0,15.1,2.5,20.8,7.4c6.1,5.4,9.1,12.8,9,22.1
			c0,2.2-0.1,4-0.4,5.4c-0.4,3.9-1.4,7.4-3,10.5C569.3,1258.6,561.5,1263.4,550.2,1264.2z M549.8,1321.4c-0.4,3.1-1.1,5.9-2.2,8.2
			c-3.3,7.7-9.6,11.6-19,11.6c-7.8,0-13.6-3.1-17.3-9.3c-2.6-4.4-3.9-9.4-3.8-14.9c0.1-7.5,2.4-13.3,6.8-17.3
			c0.3-0.3,0.6-0.5,0.8-0.8c3.9-3.1,8.5-4.5,13.9-4.2c1.6,0.1,3.1,0.3,4.5,0.6c3.8,0.9,7.1,2.7,10.1,5.4c1.2,1.1,2.2,2.3,3,3.5
			c2.3,3.5,3.5,7.6,3.5,12.3C550.1,1318.3,550,1319.9,549.8,1321.4z M553,1405.3c-2.7-3.8-3.9-8-3.8-12.5c0-2.4,0.4-4.5,1-6.5
			c1.1-3.8,3.3-7.1,6.5-9.7c4.5-3.6,10-5.4,16.4-5.4s11.8,1.8,16.3,5.4c4.9,4,7.3,9.4,7.2,16.2c0-0.9-0.8,2.3-2.3,9.6
			c-3.8,8-11,12-21.7,12c-8.9,0-15.4-3-19.4-8.9C553.1,1405.5,553,1405.4,553,1405.3z M546.9,1527.7c-3.3-1.4-5.9-3.5-7.9-6.2
			c-2.7-3.6-4-7.7-4.1-12.6c0-0.2,0-0.5,0-0.7c0.1-6.7,2.6-12,7.5-15.9c4.5-3.6,9.9-5.4,16.3-5.4c6.3,0,11.6,1.8,15.9,5.4
			c4.9,3.9,7.3,9.2,7.2,15.9c0-0.5-0.8,2.9-2.3,10.1c-3.7,7.6-10.8,11.4-21.2,11.4C554,1529.7,550.2,1529.1,546.9,1527.7z
			 M512.1,1432.2c4.3,3.9,6.4,9.2,6.3,15.9c0-0.5-0.8,2.9-2.4,10.1c-3.5,7.6-9.8,11.4-19,11.4c-7.8,0-13.6-2.8-17.5-8.3
			c-2.7-3.9-4-8.3-3.9-13.2c0.1-6.7,2.4-12,6.9-15.9c4-3.6,8.9-5.4,14.7-5.4C503.2,1426.8,508.1,1428.6,512.1,1432.2z M537.8,1611.4
			c0-0.8-0.8,2.4-2.3,9.5c-3.8,7.7-11,11.6-21.7,11.6c-8.3,0-14.6-2.8-18.8-8.4c-3.2-4-4.8-8.2-4.7-12.6c0.1-6.9,2.6-12.4,7.5-16.6
			c4.5-3.7,10-5.6,16.4-5.6c6.4,0,11.8,1.9,16.3,5.6C535.5,1599,537.9,1604.5,537.8,1611.4z"/>
		<path class="st10" d="M566.2,1133.8l-2.5-25.1c1,3,6.8,5.7,17.5,8c0.4,0.8,0.9,1.5,1.4,2.2c4.1,5.6,11.3,8.4,21.5,8.4
			c7.2,0,13-1.8,17.4-5.3c8.3,0.5,17.2,0.8,26.6,0.8c16,0,30.4-0.6,43.1-1.8l14.3-1.7c0.7-0.1,1.3-0.2,2-0.3c2.5-0.5,4.8-1,6.8-1.5
			c10.3-2.4,16.2-4.9,17.8-7.4l-17.5,141.4l-0.8,6.2v0.8c-1,2-5.7,4-14.1,5.9c-1.5,0.5-3.3,1-5.3,1.5c-0.7,0.1-1.3,0.2-2,0.3
			l-29.8,1.8c1.4-0.8,2.2-1.7,2.5-2.6v-0.6c0-2.5-4.1-4.7-12.2-6.7l13.8-113.2v-0.6c0-3.1-6.3-5.8-18.8-8.1
			c-13.1-2.3-28.8-3.5-46.9-3.5c-4.4,0-8.6,0.1-12.7,0.2c-3.1-1-6.4-1.4-10-1.4C573.9,1131.6,569.9,1132.4,566.2,1133.8z"/>
		
			<linearGradient id="SVGID_1_" gradientUnits="userSpaceOnUse" x1="1339.1661" y1="-162.5936" x2="1505.9058" y2="-162.5936" gradientTransform="matrix(0.5654 0.8248 -0.8248 0.5654 -8.9609 28.9999)">
			<stop  offset="0" style="stop-color:#303030"/>
			<stop  offset="1" style="stop-color:#000000"/>
		</linearGradient>
		<path class="st11" d="M763.5,995.3c0.8-1.4,1.5-3,2.1-4.7c4.3-11.4,7.8-18.2,10.5-20.3c13,15.5,20.6,34,22.7,55.2
			c9.3,11,21.4,19.4,36.3,25c13.1,5.1,27.7,7.9,43.8,8.3c49.1,1.9,91.3,12,126.5,30.2c4.2,2.5,8.2,3.8,12,3.9
			c4.8,0.1,7.9-2.2,9.2-6.9c5-12.1,11.6-23,19.9-32.5c8.3-10,18-18.2,28.9-24.4c10.7-9.5,15.5-23.1,14.4-40.8
			c-0.5-5.8-1.7-13.3-3.6-22.4c-2.4-11.6-3.8-18.7-4.2-21.1c5-4.6,10.3-1.7,15.8,8.7c8.2,18.6,10.5,37.7,6.8,57.5
			c-4,21.7-14.5,37.5-31.6,47.4c-8.4,4.3-15.7,13.9-21.8,28.9c-4.7,11.6-11.1,22.1-19.3,31.3c-8,2.6-14.3,9.5-19,20.8
			c-4.4,11.2-8.6,22.2-12.6,33c-3.9,10.8-8.8,19.1-14.7,24.7c-17.4,10-30.2,16.2-38.5,18.5c-3.4,7.8-7.2,20.2-11.3,37
			c-4.3,14.7-11,25.5-20,32.3c-0.3,1.1-0.6,2.2-1,3.2c-5.5,2.2-10.3,5.3-14.4,9.3c-1.8,1.7-3.4,3.5-4.7,5.3c-0.3,0-0.6,0.1-0.9,0.2
			c-11.2,1.7-19.8-1.4-25.7-9.3c0.3-4.8,2.4-8.7,6.4-11.7c0.2-0.2,0.3-0.3,0.5-0.5c4-2.9,8.5-3.8,13.5-2.7c8-10,11.8-23.6,11.3-40.8
			c-0.8-7.3-1.8-21.8-2.9-43.5c0.1-4.7,0.7-10.5,1.7-17.5c1.1-6.8,4-14.9,8.6-24.4c4.7-9.4,7.6-15.5,8.7-18.2
			c-3.6,1.3-6.8,3.6-9.5,6.8c-4.8,5.7-8.4,12.2-10.7,19.6c-3.6,10.9-11.4,22-23.3,33.3c-8.2-0.1-13.7,1.2-16.4,3.8
			c-2.5,2.5-4,4-4.4,4.5c-0.1,0.1-0.2,0.3-0.5,0.5c-3.7,4.3-7.2,8.1-10.4,11.4c-3.5,3.4-9.5,7.2-18.1,11.4c-5.2,1-10.6,3.6-16.1,7.8
			c-1.7,1.3-6.6,5.8-14.6,13.4c-12,11.2-23.2,15.2-33.4,12c-4.7-1.2-7.8-3.4-9.3-6.5c-1.1-2.7-0.9-5.8,0.8-9.2
			c1.8-3.2,4.4-5.7,7.8-7.5c3.8-2,7.7-2.6,11.6-1.8c2.7-4.3,9-10.8,19-19.4c8.8-7.6,14.2-14.2,16.2-19.9
			c-14.7-8.5-24.3-24.2-28.6-47.1c-2-12.8-3.6-22.5-4.7-28.9c-1.6-8.5-3.6-15.8-6-22c-0.2-0.3-0.4-0.6-0.6-0.9l-0.1-0.6
			c-2.5-5.9-4.5-10.6-6-14.1c-1.3-3.6-3.7-6.4-7.2-8.3c-3.6-2-8.2-3.7-13.7-5.1c-5.6-1.4-11.6-2.6-18.1-3.5
			c-5.9-0.8-10.8-1.1-14.6-0.8c-0.6-4.4-0.2-9,1.1-13.8c1.1-3.6,3.8-10,8.1-19.3c3.7-7.9,6-14.3,6.8-19.1c1-7-0.2-13.5-3.8-19.6
			c0.1-6.2,1.1-9.1,2.9-8.7c1.1,0.3,3.5,2.8,7.1,7.4c2.5,3.2,4.9,5.9,7.2,8.1c7.6,10.5,17.3,18.7,28.9,24.4
			c11.4,5.7,18,6.5,19.7,2.3C777.2,1011.1,770.3,1001.2,763.5,995.3z"/>
		<path class="st12" d="M857.3,1278.5c-0.2,0.5-0.4,1-0.7,1.5c-2.6,5.5-6.6,10.1-11.9,13.7c-5.6,3.6-11.4,5.5-17.5,5.6
			c-6.5,0.3-12.2-1.6-17.2-5.7c-1.9-6.7,0.6-11.8,7.5-15.3c3.9-1.8,7.1-3.5,9.6-5.1c3.3-2.1,5.3-3.9,5.9-5.4
			c-0.3-2.2-0.7-4.6-1.1-7.1c4.6-9,9.8-17.5,15.6-25.4c2.4-3.2,5.1-6,8.1-8.4c0,1.7,0,3.5,0,5.3c-0.1,13.7,0.8,23.7,2.7,29.8
			C860,1267.5,859.6,1273,857.3,1278.5z M1036.4,1207.4c-3.4-4.3-7.1-8.8-11.4-13.5c-11.3-12.6-12.8-29.2-4.5-49.7
			c0.6-1,1.3-2,2-2.9c3.7-5,8.2-9.2,13.4-12.5c3.6,9.4,6.2,16.6,7.8,21.4c3.2,9.6,5.6,18.5,7.2,26.8c-1.9,4-3.8,7.8-5.6,11.4
			C1042,1195.4,1039,1201.7,1036.4,1207.4z"/>
		<path class="st13" d="M823.9,1225.5c8.5-4.2,14.5-8,18.1-11.4c3.2-3.3,6.7-7.1,10.4-11.4c2.3,7.7,3.5,15.7,3.6,24.1
			c-3,2.4-5.7,5.2-8.1,8.4c-5.8,7.9-11,16.4-15.6,25.4l-7.1-35.2L823.9,1225.5z M765.8,1095.1c-0.6-1.2-1.2-2.4-1.8-3.5
			c-4.6-3.4-14.4-6.6-29.3-9.5c-13.1-2.7-22.3-6.9-27.4-12.6v-0.1l-0.1-0.3c-0.2-0.9-0.4-1.9-0.6-2.9c-0.2-0.9-0.4-1.9-0.6-2.9h0.3
			c3.8-0.3,8.7,0,14.6,0.8c6.4,0.9,12.4,2.1,18.1,3.5c5.5,1.4,10.1,3.1,13.7,5.1c3.5,1.9,5.9,4.7,7.2,8.3
			C761.3,1084.4,763.3,1089.2,765.8,1095.1z M763.5,995.3c6.8,5.9,13.7,15.8,20.6,29.6c-1.7,4.2-8.3,3.5-19.7-2.3
			c-11.6-5.7-21.3-13.8-28.9-24.4c9.2,8.3,18.2,7.8,26.8-1.5C762.8,996.4,763.2,995.9,763.5,995.3z M1036.4,1207.4
			c-2.3,5-4.4,9.5-6.3,13.6c-8.8-6.5-18.7-12.4-29.7-17.6v0.2c-1.1-0.6-2.2-1.1-3.3-1.5l-10.4-4.5c-0.4-0.2-0.8-0.4-1.1-0.5
			c5.9-5.6,10.8-13.8,14.7-24.7c4-10.7,8.2-21.7,12.6-33c4.6-11.2,10.9-18.2,19-20.8c0.2,0.4,0.4,0.8,0.6,1.2
			c0.5,1.3,1.1,2.7,1.7,4.1l0.8,2.6c0.3,0.8,0.6,1.6,0.9,2.4c-5.2,3.3-9.7,7.5-13.4,12.5c-0.7,0.9-1.4,1.9-2,2.9
			c-8.3,20.5-6.8,37,4.5,49.7C1029.2,1198.6,1033,1203.1,1036.4,1207.4z M898,1194.4l-24.5-0.5c11.9-11.2,19.7-22.3,23.3-33.3
			c2.3-7.3,5.9-13.8,10.7-19.6c2.7-3.2,5.9-5.5,9.5-6.8c-1.1,2.7-4,8.8-8.7,18.2c-4.6,9.4-7.5,17.6-8.6,24.4
			C898.7,1183.8,898.1,1189.7,898,1194.4z"/>
		<path class="st14" d="M1300.7,1004.8c3.8,8,6.1,14,6.8,17.9c-3.5-2.7-7.7-8.3-12.8-16.9L1300.7,1004.8z M1241.5,890.7l30.3,111
			c1.3,5,4.2,7.2,8.5,6.7c2.1,8.6,4.5,17.7,7.1,27.2c5.8,21,16.2,40.5,31.1,58.7c23.1,16.5,40.5,28.8,52.2,37
			c20.3,13.9,38.4,25,54.3,33.3c-51.7,52.5-85.2,98.1-100.5,137.1c-2.5-4.6-5.1-10.1-7.7-16.4c-6.1-15.2-13.1-34.7-21.1-58.4
			c-11.3-34.3-20.9-59.3-28.6-75.1c-1.8-3.9-6.4-14.4-13.8-31.4c-5.2-13-10.1-23.4-14.6-31c-11.8,21.3-30.8,44.8-56.9,70.6
			c-11.1,10.9-20.9,20.5-29.2,28.7c-20.6,20.4-32.2,32.2-35.1,35.5c-4.5,4.6-10.5,12.7-18.1,24.2c-2.7,4-5.3,7.7-7.7,10.8
			c-4.1,5.4-7.9,9.5-11.2,12.3c-4.8-2-9.2-4-13.2-6c-8-3.9-14.4-7.7-19.3-11.3c-10.8-8.5-17.3-18.7-19.3-30.5
			c0.4-0.8,0.8-1.7,1.1-2.6c1.9-4.1,4-8.6,6.3-13.6c2.7-5.7,5.7-12,9-18.9c1.8-3.6,3.6-7.4,5.6-11.4c12.5-25.5,28.8-57.8,48.7-96.9
			c30.6-60.2,53-108.5,67.1-144.9c7.8-20.1,21.8-33.9,41.8-41.4C1220,889.9,1231,888.8,1241.5,890.7z M1366.6,1012.3
			c8.4,8.4,18.2,20.6,29.2,36.4c13.6,20.1,22.5,32.6,26.6,37.8c-1.5-0.3-8.8-1.1-21.8-2.3c-9-0.9-15.3-2.9-19-5.9
			c5.5-10.3,5.5-21.8,0-34.3C1373.8,1035.6,1368.8,1025.1,1366.6,1012.3z M1318.7,1001.7l5.3-0.9c0.4,1.7,0.7,3.2,0.8,4.6l-0.1,3.7
			c0,0.1,0,0.2-0.1,0.4C1323.4,1008.3,1321.4,1005.7,1318.7,1001.7z"/>
		<path class="st15" d="M1452.1,978.8c1.7,2.2,3.3,4.4,4.9,6.6c-0.6,2.1-4.2,19.9-10.7,53.3c-4.2,21.6-9,39-14.3,52.4
			c-5.8-2.4-9-3.9-9.6-4.5c-4.1-5.1-13-17.7-26.6-37.8c-11-15.8-20.8-28-29.2-36.4l-3.4-14.1c-0.4-1.4-0.7-2.7-1.1-4L1452.1,978.8z
			 M1342.6,997.6l2.2-0.4c0.6,2.5,1.1,4.6,1.4,6.4C1345.2,1001.9,1344,999.9,1342.6,997.6z M1267.3,1151.6
			c-3.7,4.2-19.8,20.6-48.1,49.2c-0.9,0.9-1.8,1.8-2.7,2.7c-20.7,21-37,38.6-49,52.8c-18.7-5.1-35.2-15.9-49.7-32.3
			c2.8-3.3,14.5-15.1,35.1-35.5c8.3-8.2,18.1-17.8,29.2-28.7c26.1-25.8,45-49.3,56.9-70.6c4.5,7.6,9.4,18,14.6,31
			C1260.8,1137.2,1265.4,1147.7,1267.3,1151.6z M662.6,1268.1c-0.3,0.2-0.7,0.4-1.1,0.5c-0.6-0.3-1.2-0.7-1.7-1
			c-1.5-3.3-3.7-6.2-6.5-8.7c-0.1-0.1-0.2-0.2-0.4-0.3l0.1-0.4c8.1,2,12.2,4.2,12.2,6.7v0.6C664.9,1266.4,664,1267.3,662.6,1268.1z
			 M603.4,1271.6c-0.4,1.5-0.8,3.2-1,4.9c-1.1,0-2.2,0-3.4,0c-4.2,0-8.2-0.1-12.1-0.2c-0.8-0.8-1.6-1.6-2.5-2.4
			c-2.1-1.9-4.4-3.5-6.9-4.7c6.6,0.5,13.8,0.7,21.7,0.7c0.2,0,0.4,0,0.6,0C601,1270.6,602.2,1271.2,603.4,1271.6z M550.2,1264.2
			c1.3,0.6,3.1,1.2,5.2,1.7c-4.6,0.8-8.6,2.6-12.1,5.3l-0.1,0.1c-5.3-1.6-8.4-3.1-9.3-4.7v-1.1c0-1,0.6-2,1.7-2.9
			c3.3,1.2,6.9,1.7,11,1.7C547.8,1264.3,549,1264.3,550.2,1264.2z"/>
		<path class="st16" d="M1522.5,673.3c8.6,2.2,16.8,3.7,24.6,4.7c1.5,7.5,3.8,18.9,6.9,34.2c1,13-2.1,24-9.2,32.8
			c-18.4-6.7-34.8-18.7-49.2-36c-9.9-11.8-17.4-24.2-22.5-37.5c4.9,4.5,10.5,7.9,16.6,10.1c8.4,2.4,16.8,1.7,25.1-2.3
			C1518,677.8,1520.5,675.8,1522.5,673.3z M1294.8,1005.9c5.1,8.5,9.3,14.1,12.8,16.9c-0.8-3.9-3.1-9.9-6.8-17.9
			c-1.4-3-3-6.2-4.8-9.8c-0.1-0.2-0.1-0.3-0.2-0.5c-5.9-11.9-9-21.8-9.2-29.6c7.9,2.7,14.9,9.2,21.1,19.6c1.8,2.8,3.4,5.4,4.9,7.7
			c2.4,3.8,4.5,7,6.2,9.6c2.7,4,4.7,6.6,5.9,7.7c0-0.1,0.1-0.3,0.1-0.4l0.1-3.7c-0.1-1.4-0.4-2.9-0.8-4.6c-0.7-2.9-1.9-6.2-3.6-10
			c-1.5-3.4-3.4-7.2-5.7-11.3c-6.6-11.8-6.5-20.4,0.3-25.6c5.6,5.8,11.3,13.7,17,23.8c1.9,3.7,3.7,7.1,5.3,10.2
			c2,3.7,3.8,6.9,5.3,9.7c1.3,2.3,2.5,4.3,3.6,6c-0.4-1.8-0.8-3.9-1.4-6.4c-0.7-2.9-1.5-6.3-2.6-10.2c-0.3-1.3-0.6-2.6-1-3.9
			c-2.2-9.4-3.6-16.4-4.2-20.9c9.7,1.5,16.8,8,21.1,19.6c0.3,0.8,0.6,1.6,0.9,2.4c1,2.8,2,6.2,3.1,10.1c0.3,1.3,0.7,2.6,1.1,4
			l3.4,14.1c2.2,12.7,7.2,23.3,15,31.7c5.5,12.5,5.5,24,0,34.3c3.6,3,9.9,5,19,5.9c13,1.2,20.3,2,21.8,2.3c0.6,0.6,3.8,2.1,9.6,4.5
			c2.3,10.6,11.6,17.3,28,20h0.5c19.7,1.9,33.2,3.6,40.5,5.1c-2.5,24.9-11.1,44.1-25.7,57.8c-8,3.7-16.7,4.3-26,1.8
			c-6.1-1.8-14.1-5.6-24.1-11.3c-16-8.2-34.1-19.3-54.3-33.3c-11.7-8.2-29.1-20.6-52.2-37c-14.9-18.2-25.3-37.7-31.1-58.7
			c-2.6-9.5-5-18.5-7.1-27.2c-2.6-10.4-4.8-20.2-6.7-29.3c6.3,3.3,12.3,10.3,17.9,20.9C1292.6,1002.1,1293.7,1004,1294.8,1005.9z
			 M1080.7,1271.4l-2.9,12.8c-1.8,0.5-3.6,1.1-5.3,1.6c-38.5,11-74.7,15-108.6,11.8c-0.6,0-1.3-0.1-1.9-0.2v-0.1
			c1.4-7.6,5.6-14.9,12.6-21.8c8.5-7.5,14.8-13.3,18.8-17.3c15.3-16,27.2-27.6,35.5-34.6c2,11.8,8.4,22,19.3,30.5
			c4.8,3.6,11.2,7.4,19.3,11.3C1071.5,1267.4,1075.9,1269.4,1080.7,1271.4z M954,1283.7c-2.9,5.7-5.3,9-7.1,9.9
			c-2.1,1.2-3.7-1.2-4.8-7.2C945.4,1285.6,949.4,1284.6,954,1283.7z"/>
		<path class="st17" d="M1686.9,753.1c-9.7,4.6-21.7,7.4-36,8.3c-1.5,0.3-14.3,0.5-38.4,0.5c-14.8,0.3-26.9,1.7-36.1,4.1
			c-4.2,1.2-8.1,2.7-11.7,4.5c10.5-17.6,3.9-26-19.9-25.4c7.1-8.8,10.2-19.8,9.2-32.8c-3.1-15.2-5.4-26.6-6.9-34.2
			c5.5-0.3,14.6-0.5,27.4-0.5c6.7,0,14.5,0.2,23.3,0.5c20.9,0.6,37.6-0.3,50.1-2.7c1.1,9.3,2,23.4,2.7,42.3
			C1655.4,733.6,1667.5,745.5,1686.9,753.1z M1083.7,1284.2h-5.9l2.9-12.8c3.3-2.8,7.1-7,11.2-12.3c2.5-3.2,5-6.8,7.7-10.8
			c7.5-11.5,13.5-19.6,18.1-24.2c14.4,16.5,31,27.2,49.7,32.3c-1.8,4.6-4,9-6.5,13.2c-10.6,4.8-23.3,8.3-37.9,10.5
			c-5,0.9-13.5,1.9-25.6,2.9C1093.3,1283.4,1088.7,1283.8,1083.7,1284.2z"/>
		<path class="st18" d="M1658.1,506.7c-2.2-0.3-4.5-0.4-6.8-0.4c-15.4,0-28.7,5.5-39.7,16.4c-11.1,10.9-16.8,24.2-17,39.7
			c-0.2,15.5,5.1,28.8,15.9,39.7c10.7,10.9,23.8,16.4,39.3,16.4c4.8,0,9.3-0.5,13.7-1.6c-8.5-7.9-14.8-19.1-19.1-33.8
			c-2.3-8.5-3.7-16.9-4.2-25.1c5.5-5.4,14.3-14.6,26.5-27.7c1.5-1.7,3-3.3,4.5-4.8c3.7-3.8,7.3-7.2,10.8-10.3c5.6-5,11-9,16.1-12
			l-1.7,127.7c-6.9-1.9-12.8-3.8-17.6-5.7c0.3,11.1,1.2,20.7,2.5,28.9c2.7,8.5-0.5,14-9.6,16.4c-5.3,1.5-13.2,3.1-23.8,4.7
			c-12.5,2.4-29.2,3.3-50.1,2.7c-8.8-0.3-16.6-0.5-23.3-0.5c-13.2-10.6-25.3-24.6-36.3-42c-1-1.5-1.9-3-2.8-4.5
			c-0.1-1.6-0.2-3.1-0.4-4.7c-0.2-2.7-0.6-5.3-1.2-7.7c-3-12.8-9.8-22.8-20.3-30.1c-3.7-9.7-5.5-17.9-5.4-24.5
			c0.1-4.5,0.3-8.9,0.8-13.2c0.1-0.1,0.2-0.3,0.2-0.5c22.1-48,65.8-70.5,131.1-67.6c7.6,5.2,14.5,11,20.7,17.5
			c0.3,0.5,0.5,1,0.8,1.4C1660.5,503.4,1659.3,505.1,1658.1,506.7z M1089.9,1337.9c0-5.8-0.3-11.8-0.9-18.1
			c-0.4-4.3-0.9-8.7-1.5-13.2c-0.9-7.1-2.2-14.6-3.8-22.4c5-0.4,9.6-0.8,13.7-1.1c12.1-1.1,20.6-2,25.6-2.9
			c14.6-2.2,27.3-5.7,37.9-10.5c5.9,6.6,8.7,17.3,8.3,31.9c-0.2,11.2-2.1,21.6-5.7,31.4c-0.5,1.4-1.1,2.8-1.7,4.1
			c-9.4,4.5-21.3,6.5-35.5,5.9C1123,1342.6,1110.8,1340.9,1089.9,1337.9z"/>
		<path class="st19" d="M1661.8,501.7c1.5-2,3.1-3.9,4.7-5.9c10.2-11.9,20.9-21.7,32-29.4l-0.5,36.9c-5.1,3-10.5,7-16.1,12
			c-3.5,3.1-7.1,6.5-10.8,10.3c-1.5,1.5-3,3.2-4.5,4.8c-12.1,13-21,22.3-26.5,27.7c-0.2-2.4-0.3-4.8-0.3-7.2
			c0.1-9.7,3.5-20.4,10.1-31.9c2.3-4,5-8.1,8.1-12.3C1659.3,505.1,1660.5,503.4,1661.8,501.7z M899.8,1334.5
			c-6.2-6.2-9-12.7-8.7-19.3c0.3-4.4,1.8-8.6,4.7-12.5c1.3-1.8,2.8-3.6,4.7-5.3c4.1-4,8.9-7.1,14.4-9.3c1.6-0.6,3.2-1.2,4.9-1.7
			c7.9-2.4,15.4-2.4,22.4,0c1.1,6,2.7,8.4,4.8,7.2c1.8-0.9,4.2-4.2,7.1-9.9c4.6-7,10.3-12.6,17.2-16.9c6.9-4.9,14.3-7.8,22.3-8.7
			c-4,4-10.3,9.8-18.8,17.3c-7.1,7-11.3,14.2-12.6,21.8v0.1c0.6,0.1,1.2,0.1,1.9,0.2c33.9,3.2,70.1-0.8,108.6-11.8
			c1.8-0.5,3.5-1,5.3-1.6h5.9c1.6,7.8,2.8,15.3,3.8,22.4c0.6,4.5,1.1,8.9,1.5,13.2c0.6,6.3,0.9,12.4,0.9,18.1
			c-2.6,9.1-9.2,14.3-19.7,15.5c-6.1,0.9-15.4,1.1-27.8,0.5c-3.3-0.3-24.1-2.1-62.3-5.5c-3-0.3-6.2-0.5-9.5-0.8
			c-28.9-2.5-52.3-6.6-70.1-12.3C900.2,1335,900,1334.7,899.8,1334.5z M1567.6,458.6c-24.6,9.8-44.8,26-60.5,48.5
			c-16.1,23.1-25,44.5-26.9,64.2c-0.3,3.9-0.7,8.5-1,14c-2,0.9-4,1.8-5.9,2.9c-4.9,3-9.1,6.8-12.5,11.4c-2.8,4.5-4.6,9.5-5.3,15
			c-0.9,6.3-1,13.1-0.1,20.5c0.3,3.5,0.8,6.9,1.7,10.1c-13.4-13.3-20.9-31.1-22.6-53.3c-1.8-26.5,5.1-50.1,20.6-70.7
			c8.1-19.7,21.2-35.1,39.3-46.3c16.2-10,35.2-15.5,56.7-16.4C1556.6,458.2,1562.1,458.2,1567.6,458.6z M1513.6,588.6
			c-0.7-0.5-1.4-0.9-2.1-1.4c-4.5-2.8-9-4.6-13.7-5.4c2.8-10.5,6.6-20.9,11.2-31c-0.5,4.3-0.8,8.7-0.8,13.2
			C1508.1,570.7,1509.9,578.9,1513.6,588.6z M1574.5,677.6c-12.7,0-21.9,0.2-27.4,0.5c-7.8-0.9-16-2.5-24.6-4.7
			c1.2-1.4,2.1-2.9,2.9-4.5c7.2-11.9,10.5-24.5,10-37.8c0.9,1.5,1.8,3,2.8,4.5C1549.2,652.9,1561.2,666.9,1574.5,677.6z"/>
		<path class="st20" d="M1241.5,890.7l-23.2-84.9c-1.4-5.1,0.2-8.1,4.8-8.9l244.2-42c4.7-0.8,7.8,1.4,9.2,6.5l15.2,55.7
			c-4.4,5.3-7.9,11.6-10.8,19.2l-16.6-60.7c-1.3-4.7-4-6.7-8.1-6L1243.2,806c-4.1,0.7-5.5,3.4-4.2,8.1l48,175c1.2,4.7,3.9,6.7,8,6
			l1-0.2c1.8,3.5,3.4,6.8,4.8,9.8l-5.9,1.1c-1.1-1.8-2.2-3.8-3.3-5.9c-5.6-10.6-11.6-17.6-17.9-20.9c1.9,9.1,4.1,18.9,6.7,29.3
			c-4.3,0.5-7.2-1.7-8.5-6.7L1241.5,890.7z M1324,1000.8l-5.3,0.9c-1.8-2.6-3.8-5.8-6.2-9.6l7.9-1.4
			C1322,994.6,1323.2,997.9,1324,1000.8z M1344.8,997.2l-2.2,0.4c-1.6-2.8-3.4-6-5.3-9.7l5-0.8
			C1343.3,990.9,1344.1,994.3,1344.8,997.2z M1452.1,978.8l-90,15.5c-1.1-3.9-2.1-7.2-3.1-10.1l87.8-15c2.2,2.9,4.9,5.5,8,8
			c0.4,0.3,0.8,0.6,1.3,1L1452.1,978.8z"/>
		<path class="st21" d="M1469.2,890.1c4.9-29.4,8.7-47,11.3-52.8c0.1-0.4,0.3-0.8,0.4-1.1c2.8-7.5,6.4-13.9,10.8-19.2
			c6.5-7.9,14.8-13.3,24.8-16.1l15.2-4.1c14.4,3.6,26.6,12.4,36.4,26.3c2.7,3.4,5.1,7.1,7.1,11c-0.3,0-0.6,0-0.9,0
			c-24.3,2.4-42.1,22-53.6,58.7c-1.3,4.3-2.7,9.1-4.4,14.4c-2.4,7.9-5.2,17-8.4,27.2c-2.5,7.8-5.2,16.3-8.1,25.5
			c-1.1,3.5-2.2,7.1-3.4,10.8c0,0.1-0.1,0.3-0.1,0.5c-5.4,18-13,45.7-22.9,83.4c-6.3,25.2-10.8,44-13.4,56.4
			c-16.4-2.7-25.7-9.4-28-20c5.3-13.3,10.1-30.8,14.3-52.4c6.5-33.4,10.1-51.2,10.7-53.3l1.1-5.9c0.2-0.6,0.4-1.2,0.5-1.8
			c0.7-2.6,1.3-5.2,1.9-7.8c0.2-1.1,0.5-2.2,0.7-3.2c2-9.7,3.6-20.2,4.9-31.4C1467,925,1468.1,909.9,1469.2,890.1z"/>
		<path class="st22" d="M1531.6,796.9c5.1-4.3,9.7-8.4,13.7-12.3c2.8-3,5.7-5.6,8.7-7.7c30.2,17.9,45.1,36.5,44.8,56
			c0,4.5-0.5,10.9-1.5,19.1c-0.3,1.5-0.5,3.2-0.6,5c0,2.5,0,5.3,0,8.3c-0.1,5.1-2.3,19.5-6.6,43.2c-4.2,24.1-6.4,38.5-6.5,43.3
			c0,2.4-6.5,56.5-19.4,162.2c-6.6,38.2-13.7,69.5-21.2,93.7c-23.4-5.7-44.5-15.7-63.5-30.1c-0.6-0.3-1.1-0.6-1.4-0.9
			c-0.3-0.3-0.5-0.6-0.8-0.9c-0.3-0.3-0.6-0.6-0.9-0.9c-0.6-0.3-1.1-0.6-1.4-0.9c14.6-13.6,23.2-32.9,25.7-57.8
			c4.1-17.7,13-48,26.8-91.2c12-38.8,20.3-69.5,24.8-91.9c1-7.9,7.2-18.9,18.7-32.8c10.1-12.7,14.7-24.3,13.7-34.6
			c-1.4-10.9-4.5-21-9.3-30.1c-0.3-0.3-0.5-0.8-0.5-1.4c-2-3.9-4.4-7.6-7.1-11C1558.2,809.3,1546.1,800.5,1531.6,796.9z
			 M1469.2,890.1c-1.1,19.8-2.2,34.8-3.2,45.1c-1.3,11.2-2.9,21.6-4.9,31.4c-0.2,1.1-0.4,2.2-0.7,3.2c-0.6,2.7-1.2,5.3-1.9,7.8
			c-0.2,0.6-0.3,1.2-0.5,1.8c-0.7-0.5-1.3-1-1.9-1.4c-0.5-0.3-0.9-0.7-1.3-1c-3.2-2.5-5.9-5.1-8-8c-7.3-9.4-9.4-21-6.4-34.8
			C1444.3,917.9,1453.9,903.2,1469.2,890.1z"/>
		<path class="st23" d="M1500.9,1116.1c-7.3-1.5-20.8-3.2-40.5-5.1h-0.5c2.6-12.4,7.1-31.2,13.4-56.4c9.9-37.6,17.5-65.4,22.9-83.4
			c0.1-0.2,0.1-0.3,0.1-0.5c1.2-3.7,2.3-7.3,3.4-10.8c2.9-9.2,5.6-17.7,8.1-25.5c3.2-10.2,6-19.3,8.4-27.2
			c1.6-5.3,3.1-10.1,4.4-14.4c11.4-36.7,29.3-56.3,53.6-58.7c0.3,0,0.6,0,0.9,0c0,0.6,0.1,1.1,0.5,1.4c4.8,9.1,7.9,19.2,9.3,30.1
			c1,10.3-3.6,21.9-13.7,34.6c-11.4,13.9-17.7,24.9-18.7,32.8c-4.5,22.5-12.8,53.1-24.8,91.9C1514,1068.1,1505,1098.5,1500.9,1116.1
			z"/>
		<path class="st24" d="M1691,1038.5c-3.3,6.6-7.7,15.3-13.2,26.2c-5.9,11.8-10.3,22.3-13.2,31.4c-5.6,14.2-4.9,30.9,2.1,50.1
			c0.5,4.8,2.7,12.2,6.5,22.3c3,8.8,3.2,16.1,0.6,21.8c-30.5,18-64.4,25.2-101.9,21.8c-10-0.9-19.7-2.4-28.9-4.5
			c7.5-24.3,14.6-55.5,21.2-93.7c12.9-105.7,19.4-159.8,19.4-162.2c0.1-4.8,2.3-19.3,6.5-43.3c4.3-23.7,6.5-38.1,6.6-43.2
			c0-3,0-5.8,0-8.3c0.1-1.8,0.3-3.5,0.6-5c1-8.2,1.5-14.6,1.5-19.1c0.3-19.5-14.6-38.1-44.8-56c3.1-2.8,6.7-5,10.7-6.5
			c3.6-1.8,7.5-3.3,11.7-4.5c9.2-2.4,21.3-3.8,36.1-4.1c24.1,0,36.9-0.1,38.4-0.5c14.2-0.9,26.2-3.7,36-8.3c2.9,0.9,5.6,1.6,7.9,2.3
			L1691,1038.5z"/>
		<path class="st25" d="M1690.2,1103.6c-9.1-2.3-17.6-4.8-25.6-7.5c2.9-9.1,7.3-19.6,13.2-31.4c5.5-10.9,9.9-19.6,13.2-26.2
			L1690.2,1103.6z"/>
		<path class="st26" d="M1687.6,1298.1c-0.5,3.1-1.1,6.2-1.7,9.3c-2.9,16.8-9,32.2-18.4,46.5c-17.5,26.6-41.3,44.1-71.5,52.6
			c-0.8,0.2-1.6,0.5-2.5,0.7c-12.7,2.7-24.6,2.4-35.5-0.9c-16.2,7.9-28.6,12.8-37,14.6c-37.2,6.6-72.1,1.5-104.7-15.5
			c-19.1-9.7-35.6-22-49.5-37c-10.2-11-19-23.3-26.3-37.2c-1.5-3.1-3.2-6.3-5-9.6c-3.5-6.4-7.2-13.1-11-20
			c15.3-38.9,48.8-84.6,100.5-137.1c9.9,5.7,18,9.5,24.1,11.3c9.3,2.5,18,1.9,26-1.8c0.3,0.3,0.8,0.6,1.4,0.9
			c0.3,0.3,0.6,0.6,0.9,0.9c0.2,0.3,0.5,0.6,0.8,0.9c0.3,0.3,0.8,0.6,1.4,0.9c19,14.3,40.1,24.4,63.5,30.1
			c9.2,2.1,18.9,3.6,28.9,4.5c37.4,3.4,71.4-3.9,101.9-21.8c2.6-5.7,2.4-13-0.6-21.8c-3.8-10-6-17.5-6.5-22.3
			c10.7,17.3,18.1,37.3,22.1,59.9L1687.6,1298.1z M1640.2,558.1c0.5,8.2,1.9,16.6,4.2,25.1c4.3,14.6,10.6,25.9,19.1,33.8
			c-4.3,1.1-8.9,1.6-13.7,1.6c-15.4,0-28.5-5.5-39.3-16.4c-10.8-10.9-16.1-24.2-15.9-39.7c0.2-15.5,5.9-28.8,17-39.7
			c11-10.9,24.3-16.4,39.7-16.4c2.3,0,4.6,0.1,6.8,0.4c-3.1,4.2-5.8,8.3-8.1,12.3c-6.6,11.5-10,22.2-10.1,31.9
			C1639.9,553.3,1640,555.7,1640.2,558.1z"/>
		<path class="st27" d="M1701.5,243l-0.8,55.2l-1129,58.7l0.5-44.7L1701.5,243z M1702.1,198.6L572.7,274.8l0.3-25.3L1702.6,161
			L1702.1,198.6z M1703.2,115.4L573.3,224.2l0.5-31v-2.7l1130.1-129h0.1L1703.2,115.4z"/>
		<path class="st28" d="M1535.4,631.1c0.5,13.2-2.8,25.8-10,37.8c-0.8,1.6-1.8,3.1-2.9,4.5c-2,2.4-4.5,4.4-7.6,6
			c-8.3,3.9-16.7,4.7-25.1,2.3c-6.1-2.2-11.7-5.6-16.6-10.1c-0.5-0.5-1-0.9-1.4-1.4c-7.4-7.2-12.3-15.6-14.7-25
			c-0.8-3.2-1.4-6.6-1.7-10.1c-0.8-7.3-0.8-14.1,0.1-20.5c0.7-5.5,2.5-10.5,5.3-15c3.4-4.6,7.6-8.4,12.5-11.4c1.9-1,3.9-2,5.9-2.9
			c3.2-1.5,6.6-2.8,10-3.9c2.9-0.2,5.7-0.1,8.6,0.5c4.6,0.8,9.2,2.6,13.7,5.4c0.7,0.4,1.4,0.9,2.1,1.4c10.5,7.2,17.3,17.3,20.3,30.1
			c0.6,2.4,1,5,1.2,7.7C1535.2,628,1535.4,629.5,1535.4,631.1z M1485.1,617.8c-2.8-1.8-5.3-2.7-7.4-2.7h-0.2c-1.4,0-2.9,0.3-4.4,0.9
			c-3.6,1.5-5.9,4.7-6.9,9.5c-0.6,4-0.2,8.3,1.2,12.8c0.3,0.9,0.8,2,1.4,3.2c2.3,5.8,5.4,10.1,9.3,12.8c2.5,1.8,4.8,2.9,6.9,3.2
			c1.8,0,3.5-0.3,5-0.9c3.6-1.5,5.9-4.8,6.9-9.9c1-4.3,0.6-9-1.2-14.1c-0.3-0.6-0.6-1.2-0.9-1.8c-1-2.4-2.1-4.5-3.5-6.4
			C1489.6,621.7,1487.5,619.5,1485.1,617.8z"/>
		<path class="st29" d="M1509,550.9c-4.6,10.1-8.4,20.4-11.2,31c-2.8-0.5-5.7-0.7-8.6-0.5c-3.4,1.1-6.8,2.4-10,3.9
			c0.3-5.4,0.6-10.1,1-14c1.9-19.8,10.9-41.2,26.9-64.2c15.7-22.6,35.9-38.7,60.5-48.5c0.5-0.2,1.1-0.5,1.7-0.7
			c25-9.6,43.3-8.8,55.1,2.4c11.6,10.9,18.2,18.5,19.7,22.7c-1.2-0.1-2.5-0.1-3.7-0.2c-65.4-2.9-109.1,19.7-131.1,67.6
			C1509.1,550.6,1509,550.7,1509,550.9z"/>
		<path class="st30" d="M1485.1,617.8c2.4,1.7,4.5,3.9,6.3,6.4c1.3,1.9,2.5,4,3.5,6.4c0.3,0.6,0.6,1.2,0.9,1.8
			c1.8,5.1,2.2,9.8,1.2,14.1c-1,5.1-3.3,8.4-6.9,9.9c-1.5,0.6-3.2,0.9-5,0.9c-2.1-0.3-4.4-1.4-6.9-3.2c-3.9-2.7-7-7-9.3-12.8
			c-0.6-1.2-1.1-2.3-1.4-3.2c-1.4-4.5-1.8-8.8-1.2-12.8c1-4.8,3.3-8,6.9-9.5c1.5-0.6,2.9-0.9,4.4-0.9h0.2
			C1479.8,615.1,1482.3,616,1485.1,617.8z"/>
	</g>
</g>
</svg>
